<svg width="69" height="78" viewBox="0 0 69 78" fill="none" xmlns="http://www.w3.org/2000/svg">
<g clip-path="url(#clip0)">
<path d="M34.8433 46.3211C47.4593 46.3211 57.6865 35.9518 57.6865 23.1605C57.6865 10.3693 47.4593 0 34.8433 0C22.2273 0 12 10.3693 12 23.1605C12 35.9518 22.2273 46.3211 34.8433 46.3211Z" fill="#004B66"/>
<path d="M46.1507 31.4887C44.8699 29.5777 42.9201 28.2322 40.6969 27.7251L31.7785 25.6117V23.6817L39.3072 25.4573C40.0896 25.6459 40.9139 25.5142 41.6011 25.0906C41.944 24.8778 42.2412 24.5973 42.475 24.2658C42.7088 23.9342 42.8745 23.5583 42.9621 23.1605C43.1426 22.3636 43.006 21.5267 42.582 20.8312C42.1579 20.1358 41.4806 19.6378 40.6969 19.4452L31.7785 17.3704V15.4404L39.3072 17.2257C40.0923 17.4033 40.9147 17.2649 41.6011 16.8396C41.9433 16.626 42.2399 16.3453 42.4737 16.0139C42.7074 15.6824 42.8735 15.307 42.9621 14.9096C43.145 14.1137 43.0092 13.2768 42.5846 12.5822C42.16 11.8876 41.4812 11.392 40.6969 11.2039L31.7785 9.10016V7.23767H29.4846V8.5501L25.7916 7.72018C25.0443 7.61778 24.286 7.80015 23.6636 8.23197C23.0413 8.66379 22.599 9.31436 22.4225 10.0577C22.2461 10.8011 22.3479 11.5845 22.7082 12.2561C23.0686 12.9278 23.662 13.44 24.3734 13.6937L29.4561 14.8999V16.83L25.7631 15.9518C25.0063 15.8355 24.234 16.0123 23.6 16.4471C22.966 16.8819 22.5167 17.5428 22.3415 18.2982C22.1663 19.0537 22.2781 19.8484 22.6546 20.524C23.0311 21.1997 23.6448 21.7069 24.3734 21.9446L29.4846 23.1605V25.0906L25.7916 24.2221C25.0375 24.1064 24.2681 24.2817 23.6354 24.7135C23.0026 25.1452 22.5527 25.8019 22.3745 26.5538C22.1963 27.3057 22.3027 28.0979 22.6729 28.774C23.043 29.4501 23.6498 29.9608 24.3734 30.2052L29.4561 31.4018V36.7577H22.0701V39.0834H39.2025V36.7577H31.7785V31.9326L39.3072 33.7758C39.6183 33.8378 39.9216 33.9349 40.2114 34.0653C40.949 34.364 41.5613 34.9132 41.9437 35.619C42.0964 35.9503 42.1899 36.3064 42.2197 36.6709V39.0834H47.6355V36.2655C47.5966 34.5628 47.0817 32.9063 46.1507 31.4887V31.4887Z" fill="white"/>
</g>
<path d="M1.55225 74.6262H0L3.29785 66.9241H4.34521L7.64307 74.6262H6.09619L5.36572 72.9236H2.27734L1.55225 74.6262ZM3.81885 69.325L2.83594 71.6023H4.79639L3.81885 69.325ZM11.8809 73.4177L12.1011 74.6262C11.8934 74.6978 11.5962 74.7336 11.2095 74.7336C10.3644 74.7336 9.74854 74.4776 9.36182 73.9656C9.09684 73.6111 8.96436 73.0793 8.96436 72.3704V70.5012H7.48193V69.2927H8.96436V67.8049H10.3984V69.2927H12.1548V70.5012H10.3984V72.5369C10.3984 72.8484 10.4557 73.0722 10.5703 73.2083C10.7243 73.3837 10.9678 73.4714 11.3008 73.4714C11.5264 73.4714 11.7197 73.4535 11.8809 73.4177ZM17.4346 73.4177L17.6548 74.6262C17.4471 74.6978 17.1499 74.7336 16.7632 74.7336C15.9181 74.7336 15.3022 74.4776 14.9155 73.9656C14.6506 73.6111 14.5181 73.0793 14.5181 72.3704V70.5012H13.0356V69.2927H14.5181V67.8049H15.9521V69.2927H17.7085V70.5012H15.9521V72.5369C15.9521 72.8484 16.0094 73.0722 16.124 73.2083C16.278 73.3837 16.5215 73.4714 16.8545 73.4714C17.0801 73.4714 17.2734 73.4535 17.4346 73.4177ZM22.4941 69.2229L22.333 70.5549C22.2256 70.5191 22.0537 70.5012 21.8174 70.5012C21.5309 70.5012 21.2695 70.5818 21.0332 70.7429C20.7969 70.9041 20.625 71.0795 20.5176 71.2693V74.6262H19.0889V69.2927H20.4639V69.8298C20.625 69.6293 20.8416 69.4718 21.1138 69.3572C21.3895 69.239 21.6885 69.1799 22.0107 69.1799C22.1253 69.1799 22.2865 69.1943 22.4941 69.2229ZM27.1133 72.7571V71.1619C26.9629 70.9578 26.7713 70.7966 26.5386 70.6785C26.3094 70.5603 26.0605 70.5012 25.792 70.5012C25.3874 70.5012 25.0562 70.6462 24.7983 70.9363C24.5441 71.2227 24.417 71.5647 24.417 71.9622C24.417 72.3811 24.5495 72.7284 24.8145 73.0042C25.083 73.2799 25.4196 73.4177 25.8242 73.4177C26.0892 73.4177 26.3345 73.3586 26.5601 73.2405C26.7892 73.1187 26.9736 72.9576 27.1133 72.7571ZM28.542 69.2927V74.6262H27.167V74.1965C26.748 74.5546 26.2521 74.7336 25.6792 74.7336C25.2889 74.7336 24.9165 74.6531 24.562 74.4919C24.2075 74.3308 23.9103 74.1124 23.6704 73.8367C23.2157 73.3103 22.9883 72.6855 22.9883 71.9622C22.9883 71.178 23.2425 70.5191 23.751 69.9856C24.2594 69.4485 24.8771 69.1799 25.604 69.1799C26.1984 69.1799 26.7194 69.3608 27.167 69.7224V69.2927H28.542ZM35.4761 69.2927L32.8657 71.6882L35.8037 74.6262H33.8809L31.625 72.3167V74.6262H30.1963V66.8167H31.625V71.0168L33.4619 69.2927H35.4761ZM40.5303 73.4177L40.7505 74.6262C40.5428 74.6978 40.2456 74.7336 39.8589 74.7336C39.0138 74.7336 38.3979 74.4776 38.0112 73.9656C37.7463 73.6111 37.6138 73.0793 37.6138 72.3704V70.5012H36.1313V69.2927H37.6138V67.8049H39.0479V69.2927H40.8042V70.5012H39.0479V72.5369C39.0479 72.8484 39.1051 73.0722 39.2197 73.2083C39.3737 73.3837 39.6172 73.4714 39.9502 73.4714C40.1758 73.4714 40.3691 73.4535 40.5303 73.4177ZM43.6133 69.2927V74.6262H42.1846V69.2927H43.6133ZM42.2383 68.0466C42.0557 67.8712 41.9644 67.6545 41.9644 67.3967C41.9644 67.1389 42.0557 66.9223 42.2383 66.7468C42.4209 66.5714 42.6411 66.4836 42.8989 66.4836C43.1567 66.4836 43.377 66.5714 43.5596 66.7468C43.7422 66.9223 43.8335 67.1389 43.8335 67.3967C43.8335 67.6545 43.7422 67.8712 43.5596 68.0466C43.377 68.2221 43.1567 68.3098 42.8989 68.3098C42.6411 68.3098 42.4209 68.2221 42.2383 68.0466ZM45.1924 73.3586C44.9489 72.9361 44.8271 72.4706 44.8271 71.9622C44.8271 71.4537 44.9489 70.9882 45.1924 70.5657C45.4395 70.1396 45.7796 69.803 46.2129 69.5559C46.6497 69.3053 47.1331 69.1799 47.6631 69.1799C48.193 69.1799 48.6746 69.3053 49.1079 69.5559C49.5448 69.803 49.8849 70.1396 50.1284 70.5657C50.3755 70.9882 50.499 71.4537 50.499 71.9622C50.499 72.4706 50.3755 72.9361 50.1284 73.3586C49.8849 73.7812 49.5448 74.116 49.1079 74.363C48.6746 74.6101 48.193 74.7336 47.6631 74.7336C47.1331 74.7336 46.6497 74.6101 46.2129 74.363C45.7796 74.116 45.4395 73.7812 45.1924 73.3586ZM46.6479 70.9255C46.3866 71.2048 46.2559 71.5504 46.2559 71.9622C46.2559 72.3739 46.3866 72.7195 46.6479 72.9988C46.9129 73.2781 47.2513 73.4177 47.6631 73.4177C48.0749 73.4177 48.4115 73.2781 48.6729 72.9988C48.9378 72.7195 49.0703 72.3739 49.0703 71.9622C49.0703 71.5504 48.9378 71.2048 48.6729 70.9255C48.4115 70.6427 48.0749 70.5012 47.6631 70.5012C47.2513 70.5012 46.9129 70.6427 46.6479 70.9255ZM53.1416 74.6262H51.7129V69.2927H53.0879V69.7224C53.5391 69.3608 54.0404 69.1799 54.5918 69.1799C54.9535 69.1799 55.2954 69.2569 55.6177 69.4109C55.9435 69.5613 56.2174 69.7708 56.4395 70.0393C56.6257 70.2577 56.7635 70.5138 56.853 70.8074C56.9461 71.101 56.9927 71.468 56.9927 71.9084V74.6262H55.5586V71.801C55.5586 71.3427 55.453 71.0079 55.2417 70.7966C55.0448 70.5997 54.778 70.5012 54.4414 70.5012C54.1657 70.5012 53.9097 70.571 53.6733 70.7107C53.4406 70.8468 53.2633 70.9972 53.1416 71.1619V74.6262ZM62.2617 72.9666L63.0728 73.7776C62.8185 74.0819 62.4963 74.3183 62.106 74.4866C61.7157 74.6513 61.3092 74.7336 60.8867 74.7336C60.0775 74.7336 59.4097 74.4776 58.8833 73.9656C58.3569 73.4535 58.0938 72.7857 58.0938 71.9622C58.0938 71.5933 58.1546 71.2406 58.2764 70.9041C58.4017 70.5675 58.5736 70.2721 58.792 70.0178C59.014 69.76 59.2879 69.5559 59.6138 69.4055C59.9432 69.2551 60.3013 69.1799 60.688 69.1799C61.1678 69.1799 61.6011 69.3053 61.9878 69.5559C62.3745 69.803 62.6735 70.1342 62.8848 70.5496C63.0996 70.9649 63.207 71.4179 63.207 71.9084C63.207 72.0588 63.1963 72.1949 63.1748 72.3167H59.4795C59.5153 72.689 59.6693 72.9934 59.9414 73.2297C60.2135 73.4625 60.5394 73.5789 60.9189 73.5789C61.1947 73.5789 61.4489 73.518 61.6816 73.3962C61.918 73.2745 62.1113 73.1313 62.2617 72.9666ZM59.5439 71.2693H61.7461C61.7246 71.0222 61.6136 70.8056 61.4131 70.6194C61.2126 70.4296 60.9709 70.3347 60.688 70.3347C60.3979 70.3347 60.1419 70.4278 59.9199 70.614C59.7015 70.8002 59.5762 71.0186 59.5439 71.2693ZM67.8262 69.2229L67.665 70.5549C67.5576 70.5191 67.3857 70.5012 67.1494 70.5012C66.863 70.5012 66.6016 70.5818 66.3652 70.7429C66.1289 70.9041 65.957 71.0795 65.8496 71.2693V74.6262H64.4209V69.2927H65.7959V69.8298C65.957 69.6293 66.1737 69.4718 66.4458 69.3572C66.7215 69.239 67.0205 69.1799 67.3428 69.1799C67.4574 69.1799 67.6185 69.1943 67.8262 69.2229Z" fill="#004B66"/>
<defs>
<clipPath id="clip0">
<rect width="45.6865" height="46.3211" fill="white" transform="translate(12)"/>
</clipPath>
</defs>
</svg>
