<svg width="46" height="79" viewBox="0 0 46 79" fill="none" xmlns="http://www.w3.org/2000/svg">
<g clip-path="url(#clip0)">
<path d="M22.8433 45.6865C35.4593 45.6865 45.6865 35.4593 45.6865 22.8433C45.6865 10.2273 35.4593 0 22.8433 0C10.2273 0 0 10.2273 0 22.8433C0 35.4593 10.2273 45.6865 22.8433 45.6865Z" fill="#004B66"/>
<path d="M32.1044 22.0438C31.9321 21.8438 31.8358 21.5895 31.8323 21.3255C31.8288 21.0616 31.9185 20.8048 32.0854 20.6004C32.2524 20.3959 32.486 20.2568 32.7454 20.2075C33.0047 20.1581 33.2731 20.2017 33.5035 20.3305L36.2161 15.5049L31.9901 13.1254C31.7839 13.4904 31.5078 13.8111 31.1776 14.0694C30.8474 14.3277 30.4695 14.5184 30.0656 14.6306C29.6617 14.7429 29.2396 14.7745 28.8235 14.7236C28.4074 14.6727 28.0054 14.5404 27.6404 14.3342C27.2754 14.1279 26.9546 13.8518 26.6964 13.5216C26.4381 13.1914 26.2474 12.8136 26.1351 12.4096C26.0229 12.0057 25.9913 11.5837 26.0422 11.1676C26.093 10.7514 26.2254 10.3494 26.4316 9.98443L22.2056 7.61444L19.4834 12.4401C19.5921 12.5057 19.6913 12.5858 19.7785 12.678C19.9467 12.8778 20.0399 13.1299 20.0423 13.3911C20.0447 13.6522 19.956 13.906 19.7915 14.1088C19.627 14.3116 19.397 14.4507 19.141 14.5023C18.885 14.5538 18.6191 14.5146 18.3889 14.3913L9.51807 30.1817L13.7441 32.5612C14.1606 31.8241 14.8529 31.2826 15.6686 31.0559C16.4843 30.8293 17.3567 30.9359 18.0938 31.3524C18.8309 31.7689 19.3724 32.4612 19.5991 33.2769C19.8258 34.0927 19.7191 34.965 19.3026 35.7022L23.481 38.0721L32.3613 22.2722C32.2645 22.2097 32.1778 22.1327 32.1044 22.0438ZM23.0813 16.1807C22.9144 16.3277 22.7076 16.4219 22.4871 16.4513C22.2666 16.4807 22.0424 16.4439 21.8428 16.3457C21.6433 16.2475 21.4773 16.0922 21.3661 15.8996C21.2549 15.707 21.2034 15.4857 21.2181 15.2637C21.2328 15.0418 21.3131 14.8292 21.4487 14.653C21.5844 14.4767 21.7693 14.3447 21.9801 14.2737C22.1909 14.2026 22.418 14.1958 22.6327 14.254C22.8474 14.3122 23.0399 14.4329 23.186 14.6007C23.2836 14.7109 23.3584 14.8395 23.406 14.9788C23.4536 15.1182 23.4731 15.2656 23.4634 15.4125C23.4536 15.5595 23.4148 15.703 23.3493 15.8349C23.2837 15.9667 23.1926 16.0843 23.0813 16.1807ZM26.6505 18.189C26.4836 18.336 26.2768 18.4302 26.0564 18.4596C25.8359 18.489 25.6117 18.4522 25.4121 18.354C25.2125 18.2558 25.0466 18.1005 24.9354 17.9079C24.8242 17.7153 24.7726 17.494 24.7873 17.272C24.802 17.0501 24.8823 16.8375 25.018 16.6613C25.1537 16.485 25.3386 16.353 25.5494 16.282C25.7602 16.2109 25.9873 16.2041 26.202 16.2623C26.4166 16.3205 26.6092 16.4412 26.7552 16.609C26.8528 16.7192 26.9276 16.8478 26.9752 16.9871C27.0229 17.1265 27.0424 17.2739 27.0326 17.4208C27.0229 17.5678 26.9841 17.7113 26.9185 17.8432C26.8529 17.975 26.7618 18.0926 26.6505 18.189ZM30.2483 20.2258C30.1381 20.3235 30.0096 20.3982 29.8702 20.4459C29.7308 20.4935 29.5834 20.513 29.4365 20.5032C29.2895 20.4935 29.146 20.4547 29.0141 20.3891C28.8823 20.3235 28.7648 20.2325 28.6683 20.1211C28.5213 19.9543 28.4271 19.7475 28.3977 19.527C28.3683 19.3065 28.4051 19.0823 28.5033 18.8827C28.6015 18.6831 28.7568 18.5172 28.9494 18.406C29.142 18.2948 29.3633 18.2432 29.5853 18.258C29.8072 18.2727 30.0198 18.3529 30.1961 18.4886C30.3723 18.6243 30.5043 18.8092 30.5753 19.02C30.6464 19.2308 30.6532 19.4579 30.595 19.6726C30.5368 19.8873 30.4161 20.0798 30.2483 20.2258Z" fill="white"/>
<path d="M10.0796 25.2228L19.1217 9.48951L14.6007 8.34735L10.0796 25.2228Z" fill="white"/>
</g>
<path d="M0.880859 67.5586H3.49658C3.90837 67.5586 4.24854 67.6051 4.51709 67.6982C4.78564 67.7878 5.02197 67.922 5.22607 68.1011C5.44808 68.2944 5.62174 68.5254 5.74707 68.7939C5.87598 69.0625 5.94043 69.349 5.94043 69.6533C5.94043 69.8932 5.89209 70.1331 5.79541 70.373C5.69873 70.6094 5.58236 70.7974 5.44629 70.937C5.79004 71.1089 6.06755 71.3739 6.27881 71.7319C6.49365 72.09 6.60107 72.4821 6.60107 72.9082C6.60107 73.2269 6.53841 73.5295 6.41309 73.8159C6.28776 74.1024 6.11589 74.353 5.89746 74.5679C5.43555 75.0298 4.76416 75.2607 3.8833 75.2607H0.880859V67.5586ZM2.36328 68.8799V70.5288H3.41064C3.78662 70.5288 4.06055 70.4375 4.23242 70.2549C4.37923 70.0973 4.45264 69.9147 4.45264 69.707C4.45264 69.4958 4.37923 69.3114 4.23242 69.1538C4.06055 68.9712 3.78662 68.8799 3.41064 68.8799H2.36328ZM2.36328 73.9395H3.85107C4.30583 73.9395 4.63525 73.8267 4.83936 73.6011C5.02197 73.4077 5.11328 73.1732 5.11328 72.8975C5.11328 72.6217 5.02197 72.3872 4.83936 72.1938C4.63525 71.9647 4.30583 71.8501 3.85107 71.8501H2.36328V73.9395ZM9.13086 69.9272V75.2607H7.70215V69.9272H9.13086ZM7.75586 68.6812C7.57324 68.5057 7.48193 68.2891 7.48193 68.0312C7.48193 67.7734 7.57324 67.5568 7.75586 67.3813C7.93848 67.2059 8.15869 67.1182 8.4165 67.1182C8.67432 67.1182 8.89453 67.2059 9.07715 67.3813C9.25977 67.5568 9.35107 67.7734 9.35107 68.0312C9.35107 68.2891 9.25977 68.5057 9.07715 68.6812C8.89453 68.8566 8.67432 68.9443 8.4165 68.9443C8.15869 68.9443 7.93848 68.8566 7.75586 68.6812ZM12.2139 67.4512V75.2607H10.7852V67.4512H12.2139ZM12.8208 77.9355L13.041 76.6357C13.1484 76.6715 13.2738 76.6895 13.417 76.6895C13.7214 76.6895 13.9487 76.6089 14.0991 76.4478C14.2388 76.2974 14.3086 75.993 14.3086 75.5347V69.9272H15.7373V75.5347C15.7373 75.9357 15.7069 76.2669 15.646 76.5283C15.5851 76.7897 15.4867 77.0207 15.3506 77.2212C14.9782 77.7476 14.373 78.0107 13.5352 78.0107C13.3024 78.0107 13.0643 77.9857 12.8208 77.9355ZM14.3623 68.6812C14.1797 68.5057 14.0884 68.2891 14.0884 68.0312C14.0884 67.7734 14.1797 67.5568 14.3623 67.3813C14.5449 67.2059 14.7651 67.1182 15.0229 67.1182C15.2808 67.1182 15.501 67.2059 15.6836 67.3813C15.8662 67.5568 15.9575 67.7734 15.9575 68.0312C15.9575 68.2891 15.8662 68.5057 15.6836 68.6812C15.501 68.8566 15.2808 68.9443 15.0229 68.9443C14.7651 68.9443 14.5449 68.8566 14.3623 68.6812ZM21.1191 73.6011L21.9302 74.4121C21.6759 74.7165 21.3537 74.9528 20.9634 75.1211C20.5731 75.2858 20.1667 75.3682 19.7441 75.3682C18.9349 75.3682 18.2671 75.1121 17.7407 74.6001C17.2144 74.0881 16.9512 73.4202 16.9512 72.5967C16.9512 72.2279 17.012 71.8752 17.1338 71.5386C17.2591 71.202 17.431 70.9066 17.6494 70.6523C17.8714 70.3945 18.1453 70.1904 18.4712 70.04C18.8006 69.8896 19.1587 69.8145 19.5454 69.8145C20.0252 69.8145 20.4585 69.9398 20.8452 70.1904C21.2319 70.4375 21.5309 70.7687 21.7422 71.1841C21.957 71.5994 22.0645 72.0524 22.0645 72.543C22.0645 72.6934 22.0537 72.8294 22.0322 72.9512H18.3369C18.3727 73.3236 18.5267 73.6279 18.7988 73.8643C19.071 74.097 19.3968 74.2134 19.7764 74.2134C20.0521 74.2134 20.3063 74.1525 20.5391 74.0308C20.7754 73.909 20.9688 73.7658 21.1191 73.6011ZM18.4014 71.9038H20.6035C20.582 71.6567 20.471 71.4401 20.2705 71.2539C20.07 71.0641 19.8283 70.9692 19.5454 70.9692C19.2554 70.9692 18.9993 71.0623 18.7773 71.2485C18.5589 71.4347 18.4336 71.6532 18.4014 71.9038ZM26.9629 74.0522L27.1831 75.2607C26.9754 75.3324 26.6782 75.3682 26.2915 75.3682C25.4465 75.3682 24.8306 75.1121 24.4438 74.6001C24.1789 74.2456 24.0464 73.7139 24.0464 73.0049V71.1357H22.564V69.9272H24.0464V68.4395H25.4805V69.9272H27.2368V71.1357H25.4805V73.1714C25.4805 73.4829 25.5378 73.7067 25.6523 73.8428C25.8063 74.0182 26.0498 74.106 26.3828 74.106C26.6084 74.106 26.8018 74.0881 26.9629 74.0522ZM32.5166 74.0522L32.7368 75.2607C32.5291 75.3324 32.2319 75.3682 31.8452 75.3682C31.0002 75.3682 30.3843 75.1121 29.9976 74.6001C29.7326 74.2456 29.6001 73.7139 29.6001 73.0049V71.1357H28.1177V69.9272H29.6001V68.4395H31.0342V69.9272H32.7905V71.1357H31.0342V73.1714C31.0342 73.4829 31.0915 73.7067 31.2061 73.8428C31.36 74.0182 31.6035 74.106 31.9365 74.106C32.1621 74.106 32.3555 74.0881 32.5166 74.0522ZM37.7266 73.6011L38.5376 74.4121C38.2834 74.7165 37.9611 74.9528 37.5708 75.1211C37.1805 75.2858 36.7741 75.3682 36.3516 75.3682C35.5423 75.3682 34.8745 75.1121 34.3481 74.6001C33.8218 74.0881 33.5586 73.4202 33.5586 72.5967C33.5586 72.2279 33.6195 71.8752 33.7412 71.5386C33.8665 71.202 34.0384 70.9066 34.2568 70.6523C34.4788 70.3945 34.7528 70.1904 35.0786 70.04C35.408 69.8896 35.7661 69.8145 36.1528 69.8145C36.6326 69.8145 37.0659 69.9398 37.4526 70.1904C37.8394 70.4375 38.1383 70.7687 38.3496 71.1841C38.5645 71.5994 38.6719 72.0524 38.6719 72.543C38.6719 72.6934 38.6611 72.8294 38.6396 72.9512H34.9443C34.9801 73.3236 35.1341 73.6279 35.4062 73.8643C35.6784 74.097 36.0042 74.2134 36.3838 74.2134C36.6595 74.2134 36.9137 74.1525 37.1465 74.0308C37.3828 73.909 37.5762 73.7658 37.7266 73.6011ZM35.0088 71.9038H37.2109C37.1895 71.6567 37.0785 71.4401 36.8779 71.2539C36.6774 71.0641 36.4357 70.9692 36.1528 70.9692C35.8628 70.9692 35.6068 71.0623 35.3848 71.2485C35.1663 71.4347 35.041 71.6532 35.0088 71.9038ZM43.291 69.8574L43.1299 71.1895C43.0225 71.1536 42.8506 71.1357 42.6143 71.1357C42.3278 71.1357 42.0664 71.2163 41.8301 71.3774C41.5938 71.5386 41.4219 71.714 41.3145 71.9038V75.2607H39.8857V69.9272H41.2607V70.4644C41.4219 70.2638 41.6385 70.1063 41.9106 69.9917C42.1864 69.8735 42.4854 69.8145 42.8076 69.8145C42.9222 69.8145 43.0833 69.8288 43.291 69.8574Z" fill="#004B66"/>
<defs>
<clipPath id="clip0">
<rect width="45.6865" height="45.6865" fill="white"/>
</clipPath>
</defs>
</svg>
