<svg width="1441" height="1025" viewBox="0 0 1441 1025" fill="none" xmlns="http://www.w3.org/2000/svg">
<path d="M174.3 754.81C184.1 735.52 197.63 718.11 209.61 699.95C256.96 628.13 262.61 551.07 237.56 470.62C226.74 435.86 204.05 407.49 183.86 377.96C154.09 334.41 148.11 286.85 158.52 236.24C165.32 203.16 185.28 176.92 204.16 150.41C236.33 105.24 252.16 55.28 251.83 0H170.1C170.16 29.53 165.1 57.87 149.27 83.33C138 101.42 126.21 119.17 114.47 137C66.7097 209.22 61.2497 286.66 86.9997 367.51C97.9997 402.19 121.53 430.01 140.83 460.12C178 518.12 180.64 578.12 150.22 639.7C140.54 659.28 126.72 676.32 114.73 694.48C66.9997 766.72 61.2497 844.1 86.8097 925C97.4897 958.82 119.93 986.22 139.05 1015.38C141.05 1018.38 142.89 1021.38 144.68 1024.44H236.21C224.52 991.56 202.45 964.44 183.7 935.44C146 877.13 143 816.44 174.3 754.81Z" fill="#96C0D6"/>
<path d="M23.11 754.57C33.2 734.91 46.9 717.08 59.11 698.57C105.56 627.92 110.35 552 87 473C76.28 436.71 51.65 407.94 31.76 376.6C-5 318.59 -7.9 258.46 22.67 197C32.6 177 46.62 159.54 58.86 141C75.244 116.457 87.1983 89.2315 94.18 60.56C99 40.56 97.84 20 101.76 0H20C19.4 4 18.3 8 18.2 12C17.59 36.24 11.88 59.08 0 80V478.66C26.13 530 26.39 582.94 0 636.55V1024.45H85C73.43 991.45 50.89 964.38 32.25 935.22C-5 876.88 -8.52 816.17 23.11 754.57Z" fill="#96C0D6"/>
<path d="M1228.11 754.63C1238.19 734.97 1251.91 717.16 1264.11 698.63C1310.73 627.55 1315.51 551.32 1291.53 471.84C1280.99 436.91 1257.8 408.93 1238.34 378.94C1199.34 318.88 1196.14 256.74 1229.77 193.6C1240.17 174.07 1253.97 156.37 1266.06 137.73C1293.19 95.81 1307 50.2 1304.17 0H1222.45C1224.82 25.46 1219.87 49.54 1208.82 72.47C1197.33 96.31 1180.98 117.06 1166.66 139.1C1120.66 209.89 1115.88 285.75 1139.66 364.73C1150.46 400.54 1174.58 429.02 1194.31 459.92C1231.62 518.35 1234.63 579.08 1203 640.6C1192.9 660.25 1179.12 678.03 1167 696.6C1120.73 767.28 1116 843.16 1139.5 922.18C1150.18 958.02 1174.22 986.58 1194.04 1017.43C1195.54 1019.76 1196.97 1022.1 1198.36 1024.43H1289.89C1278.23 990.98 1255.29 963.68 1236.56 934.09C1199.78 876 1196.81 815.7 1228.11 754.63Z" fill="#96C0D6"/>
<path d="M1372.57 0C1374.94 25.46 1369.99 49.54 1358.94 72.47C1347.45 96.31 1331.1 117.06 1316.78 139.1C1270.78 209.89 1266 285.75 1289.78 364.73C1300.58 400.54 1324.7 429.02 1344.43 459.92C1381.74 518.35 1384.75 579.08 1353.12 640.6C1343.02 660.25 1329.24 678.03 1317.12 696.6C1270.85 767.28 1266.12 843.16 1289.63 922.18C1300.3 958.02 1324.34 986.58 1344.16 1017.43C1345.66 1019.76 1347.09 1022.1 1348.48 1024.43H1440C1428.34 990.98 1405.4 963.68 1386.67 934.09C1349.9 876.02 1346.93 815.68 1378.23 754.61C1388.31 734.95 1402.03 717.14 1414.23 698.61C1424.61 682.889 1433.25 666.092 1440.01 648.51V466.74C1428.85 434.14 1407.01 407.43 1388.46 378.9C1349.46 318.84 1346.26 256.7 1379.89 193.56C1390.29 174.03 1404.09 156.33 1416.18 137.69C1425.71 123.102 1433.69 107.562 1440 91.32V0H1372.57Z" fill="#96C0D6"/>
<path d="M1439.93 364.73C1439.93 364.81 1439.93 364.87 1440 364.95V193C1420.31 247.91 1422.05 305.44 1439.93 364.73Z" fill="#96C0D6"/>
</svg>
