<svg width="15" height="15" viewBox="0 0 15 15" fill="none" xmlns="http://www.w3.org/2000/svg">
<path fill-rule="evenodd" clip-rule="evenodd" d="M1.60793 13.3884H12.8671V5.33761H1.60793V13.392V13.3884ZM12.8524 1.06458V2.13283C12.8557 2.3152 12.832 2.49707 12.7821 2.67251C12.6659 3.05909 12.4283 3.39794 12.1043 3.63881C11.7804 3.87969 11.3875 4.00977 10.9838 4.00977C10.5802 4.00977 10.1873 3.87969 9.86333 3.63881C9.53941 3.39794 9.30173 3.05909 9.18554 2.67251C9.1256 2.49858 9.09196 2.31669 9.08574 2.13283V1.06458H5.35977V2.13283C5.36009 2.31527 5.33522 2.49688 5.28584 2.67251C5.16851 3.05853 4.9302 3.39661 4.60607 3.63686C4.28194 3.87711 3.88916 4.0068 3.4857 4.0068C3.08224 4.0068 2.68946 3.87711 2.36533 3.63686C2.04121 3.39661 1.80289 3.05853 1.68556 2.67251C1.63314 2.49744 1.60698 2.31557 1.60793 2.13283V1.06458H0V15H14.4751V1.06458H12.8524Z" fill="#043B54"/>
<path fill-rule="evenodd" clip-rule="evenodd" d="M4.98584 7.75873C4.98584 7.92818 4.93564 8.09384 4.84157 8.23478C4.7475 8.37573 4.61379 8.48564 4.4573 8.55066C4.30082 8.61567 4.12858 8.63287 3.96233 8.60008C3.79608 8.56729 3.64327 8.48598 3.52319 8.36641C3.40312 8.24685 3.32115 8.09439 3.28765 7.92829C3.25414 7.76218 3.2706 7.58987 3.33494 7.43311C3.39928 7.27635 3.50862 7.14216 3.64916 7.04749C3.78969 6.95281 3.95513 6.9019 4.12458 6.90117C4.35236 6.90116 4.57087 6.9914 4.73228 7.15212C4.89369 7.31284 4.98486 7.53095 4.98584 7.75873V7.75873ZM8.09451 7.75873C8.09451 7.92834 8.04421 8.09414 7.94998 8.23517C7.85575 8.37619 7.72182 8.48611 7.56512 8.55102C7.40842 8.61592 7.23599 8.63291 7.06964 8.59982C6.90329 8.56673 6.75049 8.48505 6.63056 8.36512C6.51062 8.24519 6.42895 8.09238 6.39586 7.92603C6.36277 7.75968 6.37975 7.58725 6.44466 7.43056C6.50957 7.27386 6.61948 7.13992 6.76051 7.04569C6.90153 6.95146 7.06734 6.90117 7.23695 6.90117C7.46439 6.90117 7.68251 6.99152 7.84333 7.15234C8.00416 7.31317 8.09451 7.53129 8.09451 7.75873V7.75873ZM11.2032 7.75873C11.2032 7.92834 11.1529 8.09414 11.0587 8.23517C10.9644 8.37619 10.8305 8.48611 10.6738 8.55102C10.5171 8.61592 10.3447 8.63291 10.1783 8.59982C10.012 8.56673 9.85916 8.48505 9.73922 8.36512C9.61929 8.24519 9.53762 8.09238 9.50453 7.92603C9.47144 7.75968 9.48842 7.58725 9.55333 7.43056C9.61824 7.27386 9.72815 7.13992 9.86918 7.04569C10.0102 6.95146 10.176 6.90117 10.3456 6.90117C10.5731 6.90117 10.7912 6.99152 10.952 7.15234C11.1128 7.31317 11.2032 7.53129 11.2032 7.75873V7.75873ZM4.98584 10.8267C4.98584 10.9962 4.93564 11.1618 4.84157 11.3028C4.7475 11.4437 4.61379 11.5536 4.4573 11.6187C4.30082 11.6837 4.12858 11.7009 3.96233 11.6681C3.79608 11.6353 3.64327 11.554 3.52319 11.4344C3.40312 11.3149 3.32115 11.1624 3.28765 10.9963C3.25414 10.8302 3.2706 10.6579 3.33494 10.5011C3.39928 10.3444 3.50862 10.2102 3.64916 10.1155C3.78969 10.0208 3.95513 9.96991 4.12458 9.96917C4.35236 9.96917 4.57087 10.0594 4.73228 10.2201C4.89369 10.3808 4.98486 10.599 4.98584 10.8267V10.8267ZM8.09451 10.8267C8.09524 10.9965 8.04557 11.1627 7.95178 11.3042C7.858 11.4457 7.72432 11.5562 7.56769 11.6217C7.41106 11.6871 7.23851 11.7046 7.07192 11.672C6.90533 11.6393 6.75218 11.5579 6.63188 11.4381C6.51157 11.3183 6.42953 11.1656 6.39614 10.9991C6.36275 10.8327 6.37952 10.66 6.44431 10.5031C6.50911 10.3462 6.61902 10.2121 6.76013 10.1177C6.90123 10.0233 7.06718 9.97287 7.23695 9.97287C7.46375 9.97287 7.68131 10.0627 7.84203 10.2227C8.00275 10.3828 8.09353 10.5999 8.09451 10.8267V10.8267ZM11.2032 10.8267C11.2032 10.9963 11.1529 11.1621 11.0587 11.3032C10.9644 11.4442 10.8305 11.5541 10.6738 11.619C10.5171 11.6839 10.3447 11.7009 10.1783 11.6678C10.012 11.6347 9.85916 11.5531 9.73922 11.4331C9.61929 11.3132 9.53762 11.1604 9.50453 10.994C9.47144 10.8277 9.48842 10.6553 9.55333 10.4986C9.61824 10.3419 9.72815 10.2079 9.86918 10.1137C10.0102 10.0195 10.176 9.96917 10.3456 9.96917C10.5731 9.96917 10.7912 10.0595 10.952 10.2203C11.1128 10.3812 11.2032 10.5993 11.2032 10.8267V10.8267ZM4.27983 0V2.13282C4.28276 2.33195 4.21011 2.52479 4.07653 2.67249C4.00097 2.75641 3.90861 2.8235 3.80545 2.86943C3.70229 2.91536 3.59063 2.93909 3.47771 2.93909C3.36479 2.93909 3.25313 2.91536 3.14997 2.86943C3.04681 2.8235 2.95446 2.75641 2.8789 2.67249C2.74429 2.52515 2.67035 2.33238 2.6719 2.13282V0H4.27983ZM11.7724 0V2.13282C11.7753 2.33195 11.7027 2.52479 11.5691 2.67249C11.4936 2.75641 11.4012 2.8235 11.298 2.86943C11.1949 2.91536 11.0832 2.93909 10.9703 2.93909C10.8574 2.93909 10.7457 2.91536 10.6426 2.86943C10.5394 2.8235 10.4471 2.75641 10.3715 2.67249C10.2369 2.52515 10.1629 2.33238 10.1645 2.13282V0H11.7724Z" fill="#043B54"/>
</svg>
