<svg width="2591" height="2591" viewBox="0 0 2591 2591" fill="none" xmlns="http://www.w3.org/2000/svg">
<path d="M2591 0H0V2591H2591V0Z" fill="#004B66"/>
<path d="M2365.9 359.501C2377.56 320.883 2374.39 279.305 2357 242.906C2304.75 262.559 2250.41 276.143 2195.06 283.391C2068.39 300.186 1939.55 286.301 1819.37 242.906V1171.62H2357V1015.35H1982.92V809.688H2285.75V653.418H1982.92V452.615C2177.25 501.197 2331.9 450.186 2365.9 359.501Z" fill="white"/>
<path d="M587.025 1416.95H331.974L102.832 2348.09H302.825C302.825 2322.99 307.683 2296.27 310.922 2267.12C314.16 2237.98 318.209 2216.11 323.067 2191.82C359.197 2205.82 398.056 2211.35 436.657 2207.98C475.258 2204.61 512.572 2192.44 545.731 2172.39C566.452 2157.36 584.283 2138.71 598.361 2117.33C636.416 2250.93 662.326 2343.24 662.326 2344.85C662.326 2346.47 662.326 2344.85 662.326 2344.85H831.551L587.025 1416.95ZM440.472 2054.18C425.672 2055.8 410.739 2055.8 395.939 2054.18C384.358 2052.64 372.964 2049.92 361.932 2046.08L466.382 1619.38C500.389 1746.5 534.395 1874.43 569.212 2001.55C531.936 2030.98 487.506 2049.99 440.472 2056.61V2054.18Z" fill="white"/>
<path d="M2245.26 1416.95H1990.21L1761.07 2348.09H1961.87C1961.87 2322.99 1965.92 2296.27 1969.16 2267.12C1972.4 2237.98 1976.45 2216.11 1981.31 2191.82C2017.44 2205.82 2056.29 2211.35 2094.9 2207.98C2133.5 2204.61 2170.81 2192.44 2203.97 2172.39C2224.69 2157.36 2242.52 2138.71 2256.6 2117.33C2294.65 2250.93 2320.56 2343.24 2321.37 2344.85H2489.79L2245.26 1416.95ZM2099.52 2054.18C2084.45 2055.8 2069.25 2055.8 2054.18 2054.18C2042.6 2052.64 2031.2 2049.92 2020.17 2046.08L2124.62 1619.38L2227.45 2001.55C2190.44 2030.92 2146.29 2049.92 2099.52 2056.61V2054.18Z" fill="white"/>
<path d="M960.288 1416.95H1083.36L1106.84 1422.62C1208.36 1460.97 1292.22 1535.33 1342.46 1631.52C1373.92 1680.13 1399.47 1732.32 1418.57 1786.98C1444.17 1870.97 1463.39 1956.77 1476.06 2043.65V2022.6C1476.06 2022.6 1457.44 1513.31 1457.44 1457.44V1425.86L1506.83 1421C1554.53 1417.36 1602.44 1417.36 1650.14 1421L1642.04 2348.09H1415.33C1412.97 2348.9 1410.41 2348.9 1408.04 2348.09C1401.57 2348.09 1397.52 2337.57 1399.14 2327.04C1390.71 2211.81 1371.18 2097.65 1340.84 1986.16C1327.69 1938.31 1310.35 1891.71 1289.02 1846.9C1265.45 1784.66 1227.11 1729.08 1177.28 1684.96C1160.5 1671.61 1142.62 1659.69 1123.84 1649.33C1130.32 1738.4 1135.18 1831.51 1137.61 1929.49C1137.61 2076.04 1137.61 2215.3 1128.7 2344.85H949.762C953.001 2037.17 956.509 1727.87 960.288 1416.95Z" fill="white"/>
<path d="M1052.6 394.356C1087.45 349.061 1131.85 312.009 1182.65 285.837C1233.46 259.666 1289.41 245.021 1346.52 242.944C1440.66 239.898 1532.54 272.255 1604 333.629C1644.65 369.646 1674.62 416.142 1690.63 468.037C1700.1 508.172 1705.8 549.104 1707.64 590.3C1707.64 602.445 1707.64 612.162 1707.64 619.449C1664.23 622.282 1620.68 622.282 1577.28 619.449C1543.27 619.449 1512.5 614.591 1484.16 610.542C1484.16 596.777 1484.16 577.345 1478.49 553.054C1476.88 523.262 1471.16 493.835 1461.49 465.608C1444.67 443.159 1421.79 425.976 1395.55 416.08C1369.3 406.183 1340.77 403.984 1313.32 409.74C1240.45 431.601 1214.54 514.189 1190.25 566.819C1174.56 612.352 1167.43 660.389 1169.19 708.514C1162.42 753.563 1164.8 799.517 1176.21 843.621C1187.62 887.726 1207.82 929.073 1235.59 965.185C1268.85 1001.84 1313.76 1025.87 1362.71 1033.2C1405.9 1035.6 1448.92 1026.07 1487.05 1005.65C1525.19 985.226 1556.96 954.699 1578.9 917.414H1693.06C1693.87 928.194 1693.87 939.021 1693.06 949.801C1693.06 957.088 1693.06 963.566 1693.06 970.043C1690.23 984.494 1685.89 998.606 1680.11 1012.15C1635.62 1090.83 1562.08 1148.96 1475.26 1174.08C1374.85 1201.09 1267.98 1189.53 1175.67 1141.7C970.821 1032.39 957.866 782.196 956.246 736.853C953.518 665.323 964.229 593.916 987.824 526.335C1001.9 479.035 1023.79 434.425 1052.6 394.356Z" fill="white"/>
<path d="M661.514 301.204C610.556 268.565 552.537 248.578 492.289 242.906C422.698 243.278 354.478 262.291 294.726 297.965C118.214 406.463 103.639 621.84 101.21 672.041C90.6843 833.978 150.601 1045.31 314.968 1137.61C362.963 1164.34 416.391 1179.84 471.237 1182.95H485.812C540.661 1180.49 594.174 1165.24 642.081 1138.42C831.548 1032.35 852.6 785.397 855.029 751.39C855.839 732.767 873.652 433.183 661.514 301.204ZM647.749 728.719C647.749 737.625 647.749 747.342 647.749 757.058C638.843 877.701 592.691 991.057 523.057 1021.02C492.781 1032.38 459.41 1032.38 429.134 1021.02C360.31 991.057 314.158 877.701 304.442 757.058C304.442 747.342 304.442 737.625 304.442 728.719V717.383C300.923 668.733 307.208 619.871 322.924 573.695C338.641 527.519 363.469 484.969 395.936 448.567C413.971 427.551 438.984 413.751 466.379 409.702H490.67C517.774 413.935 542.472 427.72 560.303 448.567C592.967 484.84 617.921 527.372 633.649 573.582C649.377 619.791 655.551 668.715 651.798 717.383C650.141 721.045 648.787 724.836 647.749 728.719Z" fill="white"/>
</svg>
