<svg width="187" height="52" viewBox="0 0 187 52" fill="none" xmlns="http://www.w3.org/2000/svg">
<path d="M7.02539 22L0.511719 5.89551H3.7124L8.10352 16.8901L12.5283 5.89551H15.7178L9.21533 22H7.02539ZM18.8398 3.90771C18.4805 3.56331 18.3008 3.1403 18.3008 2.63867C18.3008 2.13704 18.4805 1.71403 18.8398 1.36963C19.1992 1.01774 19.6335 0.841797 20.1426 0.841797C20.6517 0.841797 21.0859 1.01774 21.4453 1.36963C21.8047 1.71403 21.9844 2.13704 21.9844 2.63867C21.9844 3.1403 21.8047 3.56331 21.4453 3.90771C21.0859 4.25212 20.6517 4.42432 20.1426 4.42432C19.6335 4.42432 19.1992 4.25212 18.8398 3.90771ZM23.6689 3.90771C23.3096 3.56331 23.1299 3.1403 23.1299 2.63867C23.1299 2.13704 23.3096 1.71403 23.6689 1.36963C24.0283 1.01774 24.4626 0.841797 24.9717 0.841797C25.4808 0.841797 25.915 1.01774 26.2744 1.36963C26.6338 1.71403 26.8135 2.13704 26.8135 2.63867C26.8135 3.1403 26.6338 3.56331 26.2744 3.90771C25.915 4.25212 25.4808 4.42432 24.9717 4.42432C24.4626 4.42432 24.0283 4.25212 23.6689 3.90771ZM17.7954 22H14.5498L21.4453 5.89551H23.6353L30.5308 22H27.2964L25.769 18.4399H19.3115L17.7954 22ZM22.5347 10.9155L20.4795 15.6772H24.5786L22.5347 10.9155ZM36.6177 14.8687H35.4834V22H32.3838V5.89551H38.2461C39.7135 5.89551 40.8853 6.29606 41.7612 7.09717C42.2104 7.52393 42.5586 8.02181 42.8057 8.59082C43.0602 9.15234 43.1875 9.7513 43.1875 10.3877C43.1875 11.0241 43.0602 11.6268 42.8057 12.1958C42.5586 12.7573 42.2104 13.2515 41.7612 13.6782C41.3045 14.1125 40.7692 14.4269 40.1553 14.6216L46.186 22H42.3452L36.6177 14.8687ZM35.4834 12.106H38.0664C38.8076 12.106 39.328 11.945 39.6274 11.623C39.9344 11.2936 40.0879 10.8893 40.0879 10.4102C40.0879 9.90853 39.9344 9.493 39.6274 9.16357C39.313 8.82666 38.7926 8.6582 38.0664 8.6582H35.4834V12.106ZM47.792 22V5.89551H50.8916V19.2373H57.6748V22H47.792ZM69.624 17.4404C70.4027 16.4746 70.792 15.3104 70.792 13.9478C70.792 12.5851 70.4027 11.4209 69.624 10.4551C68.6657 9.25716 67.2918 8.6582 65.5024 8.6582H63.2002V19.2373H65.5024C67.2918 19.2373 68.6657 18.6383 69.624 17.4404ZM60.1006 5.89551H65.1543C67.4678 5.89551 69.3171 6.40462 70.7021 7.42285C71.6979 8.16406 72.4803 9.10742 73.0493 10.2529C73.6183 11.391 73.9028 12.6226 73.9028 13.9478C73.9028 15.2729 73.6183 16.5083 73.0493 17.6538C72.4803 18.7993 71.6979 19.7427 70.7021 20.4839C69.3245 21.4946 67.4753 22 65.1543 22H60.1006V5.89551ZM74.8125 19.8101L76.8452 17.6987C77.3244 18.2303 77.8971 18.6608 78.5635 18.9902C79.2373 19.3122 79.9299 19.4731 80.6411 19.4731C81.3299 19.4731 81.8914 19.2822 82.3257 18.9004C82.7674 18.5111 82.9883 18.0244 82.9883 17.4404C82.9883 17.0511 82.8835 16.7067 82.6738 16.4072C82.4642 16.1077 82.1647 15.8532 81.7754 15.6436C81.3936 15.4339 81.0005 15.2505 80.5962 15.0933C80.1919 14.9285 79.7202 14.7339 79.1812 14.5093C78.6496 14.2847 78.2004 14.0675 77.8335 13.8579C76.3136 12.967 75.5537 11.7466 75.5537 10.1968C75.5537 9.50049 75.7035 8.8641 76.0029 8.2876C76.3099 7.70361 76.7104 7.22445 77.2046 6.8501C77.7062 6.47575 78.2715 6.1875 78.9004 5.98535C79.5368 5.77572 80.1919 5.6709 80.8657 5.6709C82.6177 5.6709 84.175 6.17627 85.5376 7.18701L83.9204 9.48926C83.591 9.18229 83.1717 8.93148 82.6626 8.73682C82.161 8.53467 81.6556 8.43359 81.1465 8.43359C80.8395 8.43359 80.5438 8.46729 80.2593 8.53467C79.9748 8.60205 79.709 8.70312 79.4619 8.83789C79.2223 8.96517 79.0277 9.14486 78.8779 9.37695C78.7282 9.60905 78.6533 9.87484 78.6533 10.1743C78.6533 10.4813 78.7581 10.762 78.9678 11.0166C79.1849 11.2637 79.4657 11.4696 79.8101 11.6343C80.1619 11.799 80.5588 11.9787 81.0005 12.1733C81.4497 12.3605 81.9064 12.5439 82.3706 12.7236C82.8348 12.9033 83.2878 13.1354 83.7295 13.4199C84.1787 13.6969 84.5755 14.0039 84.9199 14.3408C85.2718 14.6777 85.5526 15.1082 85.7622 15.6323C85.9793 16.1564 86.0879 16.7441 86.0879 17.3955C86.0879 18.3164 85.8333 19.1512 85.3242 19.8999C84.8226 20.6486 84.1562 21.2251 83.3252 21.6294C82.5016 22.0262 81.6069 22.2246 80.6411 22.2246C78.5073 22.2246 76.5645 21.4198 74.8125 19.8101ZM94.7803 15.4414H91.8379V22H88.7383V5.89551H94.7803C95.7835 5.89551 96.6146 6.0153 97.2734 6.25488C97.9398 6.49447 98.505 6.85758 98.9692 7.34424C99.3735 7.75602 99.6842 8.25765 99.9014 8.84912C100.126 9.43311 100.238 10.0433 100.238 10.6797C100.238 11.3161 100.126 11.93 99.9014 12.5215C99.6842 13.1055 99.3735 13.6034 98.9692 14.0151C98.0633 14.966 96.667 15.4414 94.7803 15.4414ZM91.8379 12.6899H94.6455C95.5365 12.6899 96.1878 12.4728 96.5996 12.0386C96.9515 11.6642 97.1274 11.2113 97.1274 10.6797C97.1274 10.1406 96.9515 9.68392 96.5996 9.30957C96.1878 8.87533 95.5365 8.6582 94.6455 8.6582H91.8379V12.6899ZM106.763 14.8687H105.629V22H102.529V5.89551H108.392C109.859 5.89551 111.031 6.29606 111.907 7.09717C112.356 7.52393 112.704 8.02181 112.951 8.59082C113.206 9.15234 113.333 9.7513 113.333 10.3877C113.333 11.0241 113.206 11.6268 112.951 12.1958C112.704 12.7573 112.356 13.2515 111.907 13.6782C111.45 14.1125 110.915 14.4269 110.301 14.6216L116.332 22H112.491L106.763 14.8687ZM105.629 12.106H108.212C108.953 12.106 109.473 11.945 109.773 11.623C110.08 11.2936 110.233 10.8893 110.233 10.4102C110.233 9.90853 110.08 9.493 109.773 9.16357C109.458 8.82666 108.938 8.6582 108.212 8.6582H105.629V12.106ZM127.596 8.6582H121.037V11.9937H125.99V14.7563H121.037V19.2373H127.82V22H117.938V5.89551H127.596V8.6582ZM132.762 5.89551L138.635 15.5425L144.498 5.89551H146.676V22H143.577V13.0269L139.713 19.3496H137.546L133.683 13.0269V22H130.583V5.89551H132.762ZM150.371 22V5.89551H153.471V22H150.371ZM159.603 3.90771C159.243 3.56331 159.063 3.1403 159.063 2.63867C159.063 2.13704 159.243 1.71403 159.603 1.36963C159.962 1.01774 160.396 0.841797 160.905 0.841797C161.414 0.841797 161.849 1.01774 162.208 1.36963C162.567 1.71403 162.747 2.13704 162.747 2.63867C162.747 3.1403 162.567 3.56331 162.208 3.90771C161.849 4.25212 161.414 4.42432 160.905 4.42432C160.396 4.42432 159.962 4.25212 159.603 3.90771ZM164.432 3.90771C164.072 3.56331 163.893 3.1403 163.893 2.63867C163.893 2.13704 164.072 1.71403 164.432 1.36963C164.791 1.01774 165.225 0.841797 165.734 0.841797C166.243 0.841797 166.678 1.01774 167.037 1.36963C167.396 1.71403 167.576 2.13704 167.576 2.63867C167.576 3.1403 167.396 3.56331 167.037 3.90771C166.678 4.25212 166.243 4.42432 165.734 4.42432C165.225 4.42432 164.791 4.25212 164.432 3.90771ZM158.558 22H155.312L162.208 5.89551H164.398L171.293 22H168.059L166.532 18.4399H160.074L158.558 22ZM163.297 10.9155L161.242 15.6772H165.341L163.297 10.9155ZM177.38 14.8687H176.246V22H173.146V5.89551H179.009C180.476 5.89551 181.648 6.29606 182.524 7.09717C182.973 7.52393 183.321 8.02181 183.568 8.59082C183.823 9.15234 183.95 9.7513 183.95 10.3877C183.95 11.0241 183.823 11.6268 183.568 12.1958C183.321 12.7573 182.973 13.2515 182.524 13.6782C182.067 14.1125 181.532 14.4269 180.918 14.6216L186.949 22H183.108L177.38 14.8687ZM176.246 12.106H178.829C179.57 12.106 180.091 11.945 180.39 11.623C180.697 11.2936 180.851 10.8893 180.851 10.4102C180.851 9.90853 180.697 9.493 180.39 9.16357C180.076 8.82666 179.555 8.6582 178.829 8.6582H176.246V12.106ZM20.7939 39.2417L17.9414 38.3994C18.2858 37.2913 18.9222 36.3929 19.8506 35.7041C20.7865 35.0153 21.8459 34.6709 23.0288 34.6709C23.9497 34.6709 24.7995 34.8805 25.5781 35.2998C26.3643 35.7191 26.9932 36.3105 27.4648 37.0742C27.944 37.8379 28.1836 38.6914 28.1836 39.6348C28.1836 40.5182 28.0002 41.3231 27.6333 42.0493C27.2664 42.7756 26.7573 43.513 26.106 44.2617L22.6807 48.2373H28.2959V51H17.8291V49.1582L23.4893 42.7456C24.0807 42.0793 24.4925 41.499 24.7246 41.0049C24.9567 40.5107 25.0728 40.0391 25.0728 39.5898C25.0728 39.0133 24.8743 38.5117 24.4775 38.085C24.0807 37.6507 23.5828 37.4336 22.9839 37.4336C22.4598 37.4336 22.0031 37.5983 21.6138 37.9277C21.2319 38.2497 20.9587 38.6877 20.7939 39.2417ZM38.0664 34.8955H40.2563V44.5649H42.9067V47.3164H40.2563V51H37.1567V47.3164H29.6772V45.4746L38.0664 34.8955ZM34.1357 44.5649H37.1567V40.7915L34.1357 44.5649ZM52.3403 51H49.0947L55.9902 34.8955H58.1802L65.0757 51H61.8413L60.314 47.4399H53.8564L52.3403 51ZM57.0796 39.9155L55.0244 44.6772H59.1235L57.0796 39.9155ZM72.9707 44.4414H70.0283V51H66.9287V34.8955H72.9707C73.974 34.8955 74.805 35.0153 75.4639 35.2549C76.1302 35.4945 76.6955 35.8576 77.1597 36.3442C77.564 36.756 77.8747 37.2576 78.0918 37.8491C78.3164 38.4331 78.4287 39.0433 78.4287 39.6797C78.4287 40.3161 78.3164 40.93 78.0918 41.5215C77.8747 42.1055 77.564 42.6034 77.1597 43.0151C76.2537 43.966 74.8574 44.4414 72.9707 44.4414ZM70.0283 41.6899H72.8359C73.7269 41.6899 74.3783 41.4728 74.79 41.0386C75.1419 40.6642 75.3179 40.2113 75.3179 39.6797C75.3179 39.1406 75.1419 38.6839 74.79 38.3096C74.3783 37.8753 73.7269 37.6582 72.8359 37.6582H70.0283V41.6899ZM84.9536 43.8687H83.8193V51H80.7197V34.8955H86.582C88.0495 34.8955 89.2212 35.2961 90.0972 36.0972C90.5464 36.5239 90.8945 37.0218 91.1416 37.5908C91.3962 38.1523 91.5234 38.7513 91.5234 39.3877C91.5234 40.0241 91.3962 40.6268 91.1416 41.1958C90.8945 41.7573 90.5464 42.2515 90.0972 42.6782C89.6405 43.1125 89.1051 43.4269 88.4912 43.6216L94.522 51H90.6812L84.9536 43.8687ZM83.8193 41.106H86.4023C87.1436 41.106 87.6639 40.945 87.9634 40.623C88.2703 40.2936 88.4238 39.8893 88.4238 39.4102C88.4238 38.9085 88.2703 38.493 87.9634 38.1636C87.6489 37.8267 87.1286 37.6582 86.4023 37.6582H83.8193V41.106ZM96.1279 51V34.8955H99.2275V51H96.1279ZM102.911 51V34.8955H106.011V48.2373H112.794V51H102.911ZM122.52 39.2417L119.667 38.3994C120.011 37.2913 120.648 36.3929 121.576 35.7041C122.512 35.0153 123.571 34.6709 124.754 34.6709C125.675 34.6709 126.525 34.8805 127.304 35.2998C128.09 35.7191 128.719 36.3105 129.19 37.0742C129.67 37.8379 129.909 38.6914 129.909 39.6348C129.909 40.5182 129.726 41.3231 129.359 42.0493C128.992 42.7756 128.483 43.513 127.832 44.2617L124.406 48.2373H130.021V51H119.555V49.1582L125.215 42.7456C125.806 42.0793 126.218 41.499 126.45 41.0049C126.682 40.5107 126.798 40.0391 126.798 39.5898C126.798 39.0133 126.6 38.5117 126.203 38.085C125.806 37.6507 125.308 37.4336 124.709 37.4336C124.185 37.4336 123.729 37.5983 123.339 37.9277C122.958 38.2497 122.684 38.6877 122.52 39.2417ZM140.488 42.9478C140.488 42.1616 140.44 41.4466 140.342 40.8027C140.252 40.1589 140.11 39.5786 139.916 39.062C139.728 38.5454 139.466 38.1449 139.129 37.8604C138.792 37.5758 138.399 37.4336 137.95 37.4336C137.501 37.4336 137.108 37.5758 136.771 37.8604C136.442 38.1449 136.18 38.5454 135.985 39.062C135.79 39.5786 135.648 40.1589 135.558 40.8027C135.468 41.4466 135.423 42.1616 135.423 42.9478C135.423 43.7339 135.468 44.4526 135.558 45.104C135.648 45.7479 135.79 46.3281 135.985 46.8447C136.18 47.3613 136.442 47.7619 136.771 48.0464C137.108 48.3309 137.501 48.4731 137.95 48.4731C138.549 48.4731 139.043 48.2186 139.433 47.7095C139.822 47.1929 140.095 46.5378 140.252 45.7441C140.41 44.943 140.488 44.0109 140.488 42.9478ZM132.627 46.1934C132.425 45.2201 132.324 44.1382 132.324 42.9478C132.324 41.7573 132.425 40.6792 132.627 39.7134C132.837 38.7401 133.155 37.8716 133.582 37.1079C134.016 36.3368 134.604 35.7378 135.345 35.311C136.086 34.8843 136.954 34.6709 137.95 34.6709C138.751 34.6709 139.47 34.8132 140.106 35.0977C140.75 35.3822 141.286 35.7715 141.712 36.2656C142.147 36.7598 142.506 37.3587 142.791 38.0625C143.075 38.7663 143.277 39.5225 143.397 40.3311C143.524 41.1322 143.588 42.0044 143.588 42.9478C143.588 43.8911 143.524 44.7671 143.397 45.5757C143.277 46.3768 143.075 47.1292 142.791 47.833C142.506 48.5368 142.147 49.1357 141.712 49.6299C141.286 50.124 140.75 50.5133 140.106 50.7979C139.47 51.0824 138.751 51.2246 137.95 51.2246C136.954 51.2246 136.086 51.0112 135.345 50.5845C134.604 50.1577 134.016 49.5625 133.582 48.7988C133.155 48.0277 132.837 47.1592 132.627 46.1934ZM148.372 39.2417L145.52 38.3994C145.864 37.2913 146.5 36.3929 147.429 35.7041C148.365 35.0153 149.424 34.6709 150.607 34.6709C151.528 34.6709 152.378 34.8805 153.156 35.2998C153.942 35.7191 154.571 36.3105 155.043 37.0742C155.522 37.8379 155.762 38.6914 155.762 39.6348C155.762 40.5182 155.578 41.3231 155.211 42.0493C154.845 42.7756 154.335 43.513 153.684 44.2617L150.259 48.2373H155.874V51H145.407V49.1582L151.067 42.7456C151.659 42.0793 152.071 41.499 152.303 41.0049C152.535 40.5107 152.651 40.0391 152.651 39.5898C152.651 39.0133 152.452 38.5117 152.056 38.085C151.659 37.6507 151.161 37.4336 150.562 37.4336C150.038 37.4336 149.581 37.5983 149.192 37.9277C148.81 38.2497 148.537 38.6877 148.372 39.2417ZM157.48 48.7202L159.715 46.856C160.059 47.3426 160.493 47.7357 161.018 48.0352C161.549 48.3271 162.111 48.4731 162.702 48.4731C163.488 48.4731 164.185 48.1961 164.791 47.6421C165.405 47.0881 165.712 46.3918 165.712 45.5532C165.712 44.7147 165.409 44.0146 164.802 43.4531C164.196 42.8841 163.443 42.5996 162.545 42.5996C161.856 42.5996 161.212 42.7531 160.613 43.0601V41.2295L163.623 37.6582H158.244V34.8955H168.014V36.7373L165.094 40.3311C166.225 40.7653 167.127 41.4466 167.801 42.375C168.482 43.2959 168.823 44.3553 168.823 45.5532C168.823 46.6613 168.553 47.6496 168.014 48.5181C167.475 49.3866 166.749 50.0566 165.835 50.5283C164.93 50.9925 163.923 51.2246 162.814 51.2246C161.819 51.2246 160.857 51.0075 159.928 50.5732C159.007 50.139 158.191 49.5213 157.48 48.7202Z" fill="#004B66"/>
</svg>
