<svg width="76" height="23" viewBox="0 0 76 23" fill="none" xmlns="http://www.w3.org/2000/svg">
<g clip-path="url(#clip0)">
<path d="M75.6857 6.82152C75.0117 6.84185 74.3361 6.82923 73.6606 6.82993C73.0567 6.82993 73.0574 6.82993 72.8723 7.40458C72.8484 7.47887 72.8137 7.55105 72.7696 7.66037C72.4246 7.17542 71.9928 6.84675 71.4185 6.75284C69.8707 6.49776 68.4532 6.77737 67.207 7.74657C67.1101 7.82225 67.045 7.94629 66.8707 7.96592C66.9103 7.79287 66.9605 7.62227 67.0211 7.45504C67.1404 7.18033 67.0153 7.05348 66.7658 6.94977C66.3401 6.78227 65.8814 6.70855 65.4227 6.73392C64.3313 6.76896 63.3976 7.18523 62.5506 7.83206C62.5145 7.84678 62.4783 7.8608 62.4414 7.87972C62.4301 7.88697 62.4197 7.89543 62.4103 7.90495L62.398 7.91686C62.3956 7.91543 62.3935 7.91354 62.3919 7.91131C62.3902 7.90907 62.389 7.90653 62.3884 7.90385C62.3878 7.90116 62.3878 7.89838 62.3883 7.89568C62.3889 7.89298 62.3899 7.89041 62.3915 7.88813C62.3939 7.88129 62.3956 7.87425 62.3966 7.8671C62.4053 7.82996 62.4053 7.78932 62.4168 7.75077C62.4211 7.70732 62.4286 7.66422 62.4393 7.62183C62.4422 7.61214 62.4461 7.60276 62.4508 7.59379C62.4809 7.45704 62.5181 7.32185 62.5622 7.18874C62.6693 6.91333 62.5933 6.81662 62.2801 6.82362C61.5453 6.84185 60.8098 6.83974 60.0749 6.82362C59.8269 6.81802 59.7133 6.8867 59.641 7.12496C59.4334 7.87972 59.2157 8.63307 58.9763 9.37941C58.5423 10.7263 58.2581 12.1181 57.6853 13.4216C56.8738 15.2675 55.3983 16.2248 53.5048 16.0797C52.2435 15.9837 50.9734 15.1483 51.1745 13.4868C51.2302 13.0186 51.3915 12.5757 51.5289 12.1314C51.7755 11.3269 51.9498 10.4993 52.2804 9.7214C52.5957 8.97856 53.128 8.44946 53.993 8.32752C54.6064 8.24133 54.9449 8.52725 54.9528 9.11311C54.9511 9.44123 54.8772 9.76521 54.7358 10.0634C54.4391 10.7147 54.0839 11.3394 53.6741 11.9303C53.4354 12.2807 53.0955 12.5673 52.6615 12.6136C52.276 12.6549 52.25 12.8939 52.1748 13.1469C52.1263 13.3116 52.19 13.3501 52.3476 13.3508C53.2155 13.3557 54.0733 13.2737 54.8183 12.8175C55.8648 12.1763 56.5635 11.2155 57.1233 10.1762C57.9189 8.70455 57.3005 7.31068 55.671 6.77317C54.8863 6.51458 54.0849 6.50827 53.2785 6.6288C51.4971 6.89581 50.1533 7.76409 49.4235 9.38852C48.8883 10.5799 48.578 11.8455 48.2735 13.1027C48.053 14.0075 48.2014 14.9599 48.6879 15.7613C49.1743 16.5627 49.9612 17.1512 50.8845 17.4042C52.9573 17.9753 54.8624 17.5275 56.6105 16.3565C56.7053 16.2927 56.7776 16.1876 56.9468 16.1813C56.8528 16.5044 56.7718 16.8176 56.6698 17.1253C56.5975 17.3411 56.6503 17.4119 56.8919 17.4056C57.6506 17.3937 58.4107 17.3895 59.1694 17.4056C59.4515 17.4119 59.5686 17.3138 59.6439 17.0552C60.0648 15.5943 60.4973 14.1366 60.9414 12.6822C61.2126 11.8014 61.3963 10.8903 61.8599 10.0711C62.4566 9.0164 63.3332 8.38919 64.6083 8.38219C65.1037 8.37868 65.5609 8.51604 65.9167 8.87835C66.0093 8.97225 66.0961 9.06196 66.0107 9.21333C65.5276 10.0732 65.3034 11.0214 65.0314 11.952C64.7595 12.8827 64.4022 13.8126 64.4723 14.8253C64.5685 16.2233 65.3967 17.3222 66.6674 17.5787C67.4644 17.7442 68.2954 17.6521 69.0332 17.3166C69.5395 17.0916 69.9387 16.7447 70.3242 16.3579C70.0255 17.2759 69.8519 18.2234 69.3637 19.0686C68.817 20.0153 67.9425 20.3622 66.8808 20.3202C65.7677 20.276 64.9121 19.8121 64.4875 18.763C64.4065 18.5633 64.2951 18.5058 64.0868 18.5114C63.6167 18.5247 63.1466 18.5353 62.6772 18.5114C62.3431 18.4932 62.3228 18.6292 62.3959 18.8815C62.6111 19.6295 63.0573 20.2958 63.6746 20.7911C65.2658 22.0897 68.1718 22.2796 70.0523 21.2165C71.3795 20.4666 72.157 19.2949 72.7175 17.9599C73.1514 16.9304 73.3923 15.8435 73.7105 14.7797C74.4678 12.2471 75.2062 9.70879 75.962 7.17612C76.0481 6.89721 75.9975 6.81451 75.6857 6.82152ZM72.1707 9.70528C71.9436 11.2218 71.4648 12.6773 70.8992 14.1056C70.7731 14.4096 70.5965 14.6915 70.3763 14.9402C70.0096 15.3677 69.5959 15.7321 69.0274 15.8961C68.1031 16.1624 67.471 15.7559 67.39 14.826C67.3784 14.6984 67.39 14.5695 67.39 14.4412H67.3618C67.3776 14.209 67.407 13.9778 67.45 13.7489C67.7509 12.5253 68.0033 11.2835 68.49 10.1145C68.924 9.07807 69.7124 8.41793 70.9289 8.38289C71.8026 8.35626 72.298 8.85802 72.1707 9.70528V9.70528Z" fill="#FE5C6F"/>
<path d="M15.8846 4.88529C14.9885 3.81448 15.1794 2.60841 16.3764 1.90622C16.6404 1.75134 16.558 1.65884 16.3764 1.54391C15.8195 1.19001 15.1975 1.23766 14.59 1.32386C13.4255 1.48925 12.6372 2.17743 12.0759 3.13611C11.4366 4.22304 11.1357 5.4291 10.7741 6.61484C10.1137 8.80972 9.47219 11.0102 8.7945 13.1988C8.48494 14.196 7.99168 15.1225 7.44273 16.0181C7.33569 16.194 7.31905 16.29 7.58159 16.2858C10.032 16.2444 12.1251 17.1485 14.0425 18.5514C15.0601 19.2964 16.0893 20.0406 17.2971 20.4898C19.5146 21.3161 21.709 21.1472 23.8788 20.3027C24.514 20.0485 25.1143 19.7189 25.6659 19.3216C25.8402 19.1967 26.0533 19.1334 26.2699 19.1422C26.8817 19.1513 27.4929 19.1422 28.1785 19.1422C27.8009 19.527 27.3876 19.8775 26.9439 20.1892C24.9832 21.6377 22.8214 22.6329 20.3471 22.9223C18.4934 23.1388 16.7041 22.8655 14.9516 22.2572C13.6917 21.8199 12.5648 21.1423 11.4395 20.473C9.55392 19.3517 7.51505 19.084 5.35541 19.3279C4.23218 19.4548 3.09812 19.548 2.00455 19.1135C1.23752 18.8222 0.576484 18.3178 0.104551 17.6635C-0.0560122 17.4393 -0.0610769 17.3307 0.258603 17.2837C2.43272 16.9655 3.79678 15.7041 4.53595 13.7601C5.2867 11.7881 5.80744 9.74738 6.42583 7.73331C7.04928 5.70101 7.90995 3.78434 9.44543 2.22018C10.7473 0.896379 12.3276 0.155641 14.2189 0.0203878C15.4109 -0.0651089 16.5543 0.032301 17.6096 0.620266C18.557 1.14866 19.1899 1.89571 19.336 2.98264C19.5067 4.25457 18.6851 5.33379 17.4251 5.45783C16.9377 5.50619 16.4994 5.35202 16.103 5.08011C16.0192 5.02781 15.9453 4.9619 15.8846 4.88529V4.88529Z" fill="#FE5C6F"/>
<path d="M35.5539 16.8512C34.5652 17.3032 33.541 17.6067 32.4352 17.6403C31.3431 17.6733 30.3334 17.449 29.4242 16.8477C29.3194 16.8155 29.263 16.7286 29.1921 16.6571L28.821 16.3004C28.7487 16.2303 28.6598 16.1757 28.6243 16.0762C27.8649 15.0004 27.7203 13.842 28.1058 12.6037C28.3668 11.7663 28.607 10.9218 28.8623 10.0809C29.8025 6.99739 32.8706 6.17747 35.1698 6.70236C35.594 6.80116 35.9896 6.99162 36.327 7.25949C37.2152 7.95398 37.4445 8.97433 36.9129 10.0697C36.4416 11.0207 35.7706 11.8659 34.9427 12.5512C34.129 13.2379 33.0955 13.3501 32.0497 13.3466C31.9014 13.3466 31.8566 13.2814 31.8978 13.1482C31.9701 12.9002 31.981 12.6444 32.3809 12.6156C32.757 12.5883 33.0789 12.3472 33.2995 12.0431C33.7943 11.366 34.2094 10.6373 34.537 9.87064C34.5742 9.772 34.6027 9.67049 34.6223 9.5672C34.7105 9.18316 34.7879 8.776 34.4408 8.48798C34.0791 8.18454 33.638 8.29105 33.2394 8.44523C32.5104 8.72555 32.1097 9.3065 31.8884 9.99818C31.5615 11.0227 31.2432 12.0522 30.9727 13.0922C30.554 14.704 31.568 15.9914 33.2872 16.0797C34.814 16.1581 35.9965 15.5639 36.8608 14.3543C36.9331 14.259 37.0055 14.1637 37.0055 14.039C36.9613 13.2022 37.2694 12.432 37.5002 11.65C38.5185 8.20696 39.5506 4.76887 40.5588 1.32378C40.6695 0.946054 40.8206 0.79118 41.2445 0.815007C41.9287 0.854251 42.6187 0.824117 43.3043 0.825519C43.7202 0.825519 43.7216 0.829021 43.6103 1.21586C42.6838 4.4395 41.7508 7.66315 40.8337 10.8917C40.5444 11.9029 40.1827 12.8967 40.0214 13.9387C39.9679 14.274 39.973 14.6157 40.0366 14.9493C40.1704 15.655 40.6369 16.0523 41.3812 16.0804C42.372 16.1168 43.0808 15.6641 43.5929 14.8736C44.0268 14.2001 44.2286 13.4412 44.4463 12.6885C44.7544 11.6219 45.1175 10.5693 45.3533 9.4838C45.3747 9.39294 45.389 9.30064 45.396 9.20769C45.4169 8.87482 45.4242 8.52722 45.0843 8.3331C44.7291 8.13058 44.353 8.21046 44.0153 8.39477C43.5654 8.64075 43.3058 9.05212 43.109 9.49852C42.9904 9.76622 42.8978 10.0444 42.7966 10.3191C42.7069 10.5623 42.0639 10.7487 41.8621 10.589C41.8397 10.5697 41.8247 10.5435 41.8195 10.5149C41.8144 10.4862 41.8195 10.4568 41.8339 10.4313C42.1232 9.55879 42.2968 8.64355 42.9138 7.89441C44.0254 6.54608 45.8849 6.33655 47.2027 6.86705C47.9093 7.15157 48.2767 7.708 48.3599 8.43892C48.4142 8.89279 48.3773 9.35255 48.2514 9.79285C47.8898 11.0276 47.5462 12.2674 47.1455 13.4902C46.6393 15.0243 45.7497 16.2934 44.2192 17.0208C42.805 17.7129 41.178 17.8787 39.6461 17.4868C38.6928 17.2528 37.9442 16.7258 37.4676 15.8799C37.3396 15.6529 37.2463 15.6136 37.0554 15.8099C36.7039 16.1666 36.2598 16.4104 35.8519 16.6985C35.7752 16.8001 35.6522 16.8029 35.5539 16.8512Z" fill="#FE5C6F"/>
<path d="M27.4666 12.8918C27.3798 12.0347 27.0152 11.28 26.5712 10.5497C26.1603 9.87697 25.6613 9.25817 25.3069 8.55247C25.0805 8.10256 24.9359 7.63093 25.0328 7.13267C25.087 6.85235 24.9778 6.82222 24.7391 6.82502C23.9436 6.83483 23.148 6.83974 22.3524 6.82502C22.0826 6.81941 21.9481 6.91262 21.8287 7.14178C20.7347 9.24416 19.6327 11.3442 18.5227 13.4419C18.151 14.1476 17.8096 14.8715 17.2874 15.4924C17.0639 15.758 16.818 15.9963 16.4759 16.1126C16.0354 16.2626 15.7635 16.0811 15.7527 15.6326C15.7425 15.2661 15.8344 14.915 15.9479 14.5702C16.4159 13.1483 16.8932 11.7292 17.3583 10.3059C17.5427 9.73962 17.7922 9.18949 17.8906 8.60013C18.0353 7.74656 17.6736 7.19504 16.8252 6.95817C16.4643 6.86488 16.0914 6.8217 15.7179 6.82993H12.9696C12.3859 6.82993 12.3975 6.82993 12.2564 7.36884C12.1986 7.59029 12.2723 7.63444 12.4734 7.62883C12.7261 7.61854 12.9791 7.62228 13.2314 7.64004C14.4833 7.74656 14.7321 8.08154 14.3965 9.25186C13.9662 10.746 13.5163 12.2337 13.0744 13.7243C12.8878 14.355 12.7468 14.9899 12.775 15.6529C12.8184 16.6754 13.384 17.3593 14.4211 17.5296C15.6283 17.7286 16.6893 17.4035 17.5586 16.5569C18.0873 16.0425 18.4714 15.4216 18.867 14.7671C18.8872 14.79 18.9051 14.8146 18.9205 14.8407C18.9466 14.9304 18.9712 15.0208 18.9929 15.1112C19.2735 16.1778 19.9331 16.9445 20.9789 17.3656C22.5701 18.0069 24.0889 17.7672 25.4812 16.8639C26.9328 15.9248 27.6401 14.6052 27.4666 12.8918ZM23.7461 15.6718C22.5752 16.7812 20.618 16.3516 19.9128 14.8309C19.7543 14.4646 19.6442 14.0803 19.5852 13.6872C19.5615 13.5131 19.5995 13.3365 19.693 13.1861C20.3805 11.8892 21.065 10.5904 21.7463 9.28971H21.8909C22.0356 10.2077 22.5014 10.9751 23.0981 11.6808C23.4337 12.0782 23.7924 12.4587 24.0571 12.9072C24.5735 13.779 24.4332 15.0222 23.7461 15.6718Z" fill="#FE5C6F"/>
<path d="M62.5508 7.83277L62.4618 7.96031C62.2868 7.93788 62.3591 7.83487 62.3895 7.74657L62.4539 7.5938C62.4676 7.68069 62.4625 7.7746 62.5508 7.83277Z" fill="#C4CBC2"/>
<path d="M15.8857 4.88803C15.9806 4.92837 16.059 4.99814 16.1085 5.08635C16.052 5.0879 15.9972 5.06805 15.9556 5.03101C15.914 4.99398 15.8889 4.94268 15.8857 4.88803V4.88803Z" fill="#CCBFBD"/>
<path d="M28.6246 16.0762C28.7138 16.128 28.7829 16.2068 28.8213 16.3004C28.7647 16.2954 28.7125 16.2691 28.6757 16.2272C28.6389 16.1853 28.6205 16.1311 28.6246 16.0762V16.0762Z" fill="#CBBEBB"/>
<path d="M29.1924 16.6571C29.2881 16.6961 29.3692 16.7626 29.4246 16.8478C29.3963 16.8505 29.3677 16.8478 29.3406 16.8396C29.3135 16.8315 29.2883 16.8181 29.2666 16.8003C29.2449 16.7825 29.2272 16.7606 29.2144 16.736C29.2017 16.7114 29.1942 16.6846 29.1924 16.6571V16.6571Z" fill="#CAC3C0"/>
<path d="M35.5537 16.8513C35.631 16.7724 35.7324 16.7198 35.843 16.7013C35.7953 16.8358 35.6839 16.8611 35.5537 16.8513Z" fill="#C3D3CE"/>
<path d="M62.3865 8.08855C62.3264 8.16704 62.2606 8.15303 62.2172 8.08155C62.1586 7.98484 62.2411 7.93578 62.3098 7.88743C62.3894 7.93578 62.3568 8.02268 62.3865 8.08855Z" fill="#F96576"/>
<path d="M62.3862 8.08854C62.3067 8.04089 62.3139 7.9617 62.3096 7.88742L62.3877 7.74726C62.3964 7.82365 62.3797 7.90844 62.46 7.961L62.3862 8.08854Z" fill="#DCA1A6"/>
<path d="M21.8927 9.28901H21.748C21.7573 9.27932 21.7684 9.2716 21.7809 9.26631C21.7933 9.26102 21.8068 9.25829 21.8204 9.25829C21.834 9.25829 21.8474 9.26102 21.8599 9.26631C21.8723 9.2716 21.8835 9.27932 21.8927 9.28901Z" fill="#B6E5DB"/>
<path d="M21.8927 9.28899H21.748C21.756 9.21891 21.7654 9.13271 21.8515 9.14182C21.9086 9.14813 21.9007 9.23293 21.8927 9.28899Z" fill="#D7AFAC"/>
</g>
<defs>
<clipPath id="clip0">
<rect width="76" height="23" fill="white"/>
</clipPath>
</defs>
</svg>
