<svg xmlns="http://www.w3.org/2000/svg" width="814" height="172" fill="#004b66"  xmlns:v="https://vecta.io/nano"><path d="M390.588 22.42c1.204-3.262 2.829-10.215-1.632-21.425a139.64 139.64 0 0 1-29.141 7.425c-29.49 4.192-54.017-2.085-68.918-7.425v169.852h98.059V142.36h-68.192v-37.27h55.184V76.189h-55.213V39.544c35.387 8.747 63.687-.45 69.853-17.124zM488.98.995h-46.566l-41.808 169.859h36.577c.312-4.584.769-9.445 1.451-14.465.624-4.846 1.364-9.444 2.176-13.804 3.12 1.119 24.005 8.217 40.683-3.632 3.795-2.713 7.042-6.123 9.569-10.048l11.759 41.637c.004.054.019.108.044.156s.059.092.101.127c.073.036.152.055.233.055a.52.52 0 0 0 .232-.055h30.41L488.98.995zM462.291 117.47a43.94 43.94 0 0 1-8.14-.254c-2.13-.294-4.234-.76-6.289-1.395l19.064-78.398 18.753 69.964c-9.111 6.677-17.918 9.684-23.388 10.084zM769.175 2.041h-46.566L680.801 171.9h36.577c.312-4.584.769-9.444 1.415-14.465.624-4.845 1.364-9.444 2.176-13.803 3.119 1.119 24.005 8.217 40.683-3.633 3.795-2.713 7.042-6.123 9.569-10.048l11.759 41.637a.4.4 0 0 0 .044.156c.025.049.059.092.101.127a.52.52 0 0 0 .464 0H814L769.175 2.041zm-26.689 116.475c-2.715.168-5.44.083-8.14-.254-2.131-.296-4.234-.765-6.289-1.402l19.064-78.391 18.738 69.956c-9.097 6.676-17.911 9.692-23.373 10.091zM544.368 1.722l22.489.109 4.352 1.053c22.707 6.488 35.627 26.627 43.019 38.157a135.71 135.71 0 0 1 13.783 28.334c8.655 26.009 9.743 47.027 10.621 46.94.413-.044.276-3.851.276-3.851L635.52 8.747V3.022a181.89 181.89 0 0 1 9.017-.865c8.695-.612 17.424-.59 26.116.065l-1.785 169.67h-41.444a2.11 2.11 0 0 1-1.328 0c-1.124-.407-1.842-1.983-1.61-3.887-1.51-21.088-5.074-41.978-10.643-62.371a153.04 153.04 0 0 0-9.387-25.341c-4.897-10.288-9.837-20.408-20.414-29.061a60.35 60.35 0 0 0-9.801-6.502 926.11 926.11 0 0 1 2.489 51.125c.566 26.881-.073 52.309-1.509 76.001h-32.776l1.923-170.135zm-381.119 25.42C172.941 13.339 191.541.646 214.073.022c4.868-.131 27.466-.189 44.499 16.521 2.3 2.259 11.375 11.348 14.864 24.578 2.177 8.239 2.822 20.473 2.902 22.471.116 2.18.16 3.981.181 5.209a165.15 165.15 0 0 1-22.488.334 164.12 164.12 0 0 1-16.025-1.649c-.182-2.427-.494-6.081-1.038-10.505-1.102-9.009-1.654-13.513-2.901-15.94-3.961-7.628-15.851-12.503-25.471-10.171-12.811 3.11-17.976 18.112-21.35 27.906-3.438 9.997-3.627 18.112-3.692 25.893-.174 17.015-.261 33.928 11.411 46.874 2.365 2.616 9.946 11.029 21.988 12.438 13.856 1.628 28.293-6.647 37.172-21.069h19.776c.072 1.853.079 3.822 0 5.892-.051 1.265-.131 2.478-.233 3.633-.406 2.642-1.137 5.224-2.176 7.687-2.118 4.889-13.254 22.086-35.278 29.06-25.869 8.166-48.656-4.192-51.637-5.863-35.344-19.964-37.52-65.764-37.868-73.399-.806-17.204 3.373-32.221 5.411-38.6 2.547-7.963 5.245-15.802 11.129-24.178zM102.551 10.12A70.2 70.2 0 0 0 71.661.051c-8.06.131-22.22 1.533-36.192 10.135C3.375 29.94.72 70.094.198 78.478c-1.843 29.351 9.032 68.293 38.993 85.184a65.75 65.75 0 0 0 28.575 8.173v.066h.725l1.748.065v-.145a66.08 66.08 0 0 0 28.575-8.181c34.494-19.376 38.448-64.551 38.891-70.704.297-3.916 3.46-58.739-35.155-82.815zm-1.923 78.565a84.45 84.45 0 0 1-.304 5.18c-1.712 22.166-10.084 42.791-22.758 48.32-5.529 2.073-11.62 2.073-17.15 0-12.673-5.529-21.038-26.154-22.757-48.313a75.14 75.14 0 0 1-.305-5.187v-2.506c-.123-19.274 4.926-38.505 16.685-49.062 3.823-4.076 8.132-6.706 12.768-7.2a42.57 42.57 0 0 1 4.462 0c4.636.494 8.952 3.124 12.768 7.2 11.73 10.534 16.78 29.787 16.686 49.062-.095.843-.095 1.678-.095 2.506z"/></svg>