<svg width="60" height="79" viewBox="0 0 60 79" fill="none" xmlns="http://www.w3.org/2000/svg">
<g clip-path="url(#clip0)">
<path d="M29.8433 45.6865C42.4593 45.6865 52.6865 35.4593 52.6865 22.8433C52.6865 10.2273 42.4593 0 29.8433 0C17.2273 0 7 10.2273 7 22.8433C7 35.4593 17.2273 45.6865 29.8433 45.6865Z" fill="#004B66"/>
<path d="M22.8096 24.6802C24.7608 24.6802 25.8363 24.6802 27.759 24.6802H29.8434C30.0838 24.6627 30.3116 24.5656 30.4907 24.4042C30.6508 24.2362 30.7569 24.024 30.7952 23.7951V14.277H28.3681V22.2722H22.229V24.6707L22.8096 24.6802Z" fill="white"/>
<path d="M35.04 18.8647C35.7812 18.8647 36.3821 18.2639 36.3821 17.5227C36.3821 16.7815 35.7812 16.1807 35.04 16.1807C34.2989 16.1807 33.698 16.7815 33.698 17.5227C33.698 18.2639 34.2989 18.8647 35.04 18.8647Z" fill="white"/>
<path d="M37.9336 24.5756C38.6748 24.5756 39.2756 23.9747 39.2756 23.2335C39.2756 22.4923 38.6748 21.8915 37.9336 21.8915C37.1924 21.8915 36.5916 22.4923 36.5916 23.2335C36.5916 23.9747 37.1924 24.5756 37.9336 24.5756Z" fill="white"/>
<path d="M35.04 30.2768C35.7812 30.2768 36.3821 29.6759 36.3821 28.9348C36.3821 28.1936 35.7812 27.5927 35.04 27.5927C34.2989 27.5927 33.698 28.1936 33.698 28.9348C33.698 29.6759 34.2989 30.2768 35.04 30.2768Z" fill="white"/>
<path d="M29.3291 33.1894C30.0703 33.1894 30.6711 32.5885 30.6711 31.8474C30.6711 31.1062 30.0703 30.5053 29.3291 30.5053C28.5879 30.5053 27.9871 31.1062 27.9871 31.8474C27.9871 32.5885 28.5879 33.1894 29.3291 33.1894Z" fill="white"/>
<path d="M23.5327 30.2768C24.2739 30.2768 24.8748 29.6759 24.8748 28.9348C24.8748 28.1936 24.2739 27.5927 23.5327 27.5927C22.7915 27.5927 22.1907 28.1936 22.1907 28.9348C22.1907 29.6759 22.7915 30.2768 23.5327 30.2768Z" fill="white"/>
<path d="M29.8432 11.0409C32.1775 11.0409 34.4594 11.7331 36.4002 13.03C38.3411 14.3268 39.8539 16.1701 40.7472 18.3267C41.6405 20.4833 41.8742 22.8564 41.4188 25.1458C40.9634 27.4352 39.8393 29.5382 38.1887 31.1888C36.5381 32.8394 34.4352 33.9635 32.1457 34.4188C29.8563 34.8742 27.4832 34.6405 25.3266 33.7472C23.17 32.8539 21.3268 31.3412 20.0299 29.4003C18.7331 27.4594 18.0409 25.1776 18.0409 22.8433C18.0409 19.7131 19.2843 16.7111 21.4977 14.4977C23.7111 12.2844 26.713 11.0409 29.8432 11.0409ZM29.8432 8.56622C27.0195 8.56622 24.2592 9.40356 21.9113 10.9723C19.5635 12.5411 17.7335 14.7709 16.6529 17.3797C15.5723 19.9885 15.2896 22.8591 15.8405 25.6286C16.3914 28.3981 17.7511 30.942 19.7478 32.9387C21.7445 34.9353 24.2884 36.2951 27.0579 36.846C29.8274 37.3969 32.698 37.1141 35.3068 36.0335C37.9156 34.9529 40.1454 33.123 41.7141 30.7752C43.2829 28.4273 44.1203 25.667 44.1203 22.8433C44.1203 19.0568 42.6161 15.4253 39.9386 12.7479C37.2611 10.0704 33.6297 8.56622 29.8432 8.56622Z" fill="white"/>
</g>
<path d="M2.14307 70.0884C1.92464 70.4894 1.81543 70.9299 1.81543 71.4097C1.81543 71.8895 1.92464 72.3317 2.14307 72.7363C2.36149 73.1374 2.66406 73.4578 3.05078 73.6978C3.44108 73.9341 3.87256 74.0522 4.34521 74.0522C4.81787 74.0522 5.24756 73.9341 5.63428 73.6978C6.02458 73.4578 6.32894 73.1374 6.54736 72.7363C6.76579 72.3317 6.875 71.8895 6.875 71.4097C6.875 70.9299 6.76579 70.4894 6.54736 70.0884C6.32894 69.6838 6.02458 69.3633 5.63428 69.127C5.24756 68.8906 4.81787 68.7725 4.34521 68.7725C3.87256 68.7725 3.44108 68.8906 3.05078 69.127C2.66406 69.3633 2.36149 69.6838 2.14307 70.0884ZM0.623047 72.9512C0.426107 72.4678 0.327637 71.9539 0.327637 71.4097C0.327637 70.8654 0.426107 70.3516 0.623047 69.8682C0.823568 69.3848 1.09749 68.9658 1.44482 68.6113C1.79215 68.2533 2.21647 67.9704 2.71777 67.7627C3.22266 67.555 3.76514 67.4512 4.34521 67.4512C4.92529 67.4512 5.46598 67.555 5.96729 67.7627C6.47217 67.9704 6.89827 68.2533 7.24561 68.6113C7.59294 68.9658 7.86507 69.3848 8.06201 69.8682C8.25895 70.3516 8.35742 70.8654 8.35742 71.4097C8.35742 71.9539 8.25895 72.4678 8.06201 72.9512C7.86507 73.4346 7.59294 73.8553 7.24561 74.2134C6.89827 74.5679 6.47217 74.849 5.96729 75.0566C5.46598 75.2643 4.92529 75.3682 4.34521 75.3682C3.76514 75.3682 3.22266 75.2643 2.71777 75.0566C2.21647 74.849 1.79215 74.5679 1.44482 74.2134C1.09749 73.8553 0.823568 73.4346 0.623047 72.9512ZM2.56738 66.6079C2.39551 66.4432 2.30957 66.2409 2.30957 66.001C2.30957 65.7611 2.39551 65.5588 2.56738 65.394C2.73926 65.2257 2.94694 65.1416 3.19043 65.1416C3.43392 65.1416 3.6416 65.2257 3.81348 65.394C3.98535 65.5588 4.07129 65.7611 4.07129 66.001C4.07129 66.2409 3.98535 66.4432 3.81348 66.6079C3.6416 66.7726 3.43392 66.855 3.19043 66.855C2.94694 66.855 2.73926 66.7726 2.56738 66.6079ZM4.87695 66.6079C4.70508 66.4432 4.61914 66.2409 4.61914 66.001C4.61914 65.7611 4.70508 65.5588 4.87695 65.394C5.04883 65.2257 5.25651 65.1416 5.5 65.1416C5.74349 65.1416 5.95117 65.2257 6.12305 65.394C6.29492 65.5588 6.38086 65.7611 6.38086 66.001C6.38086 66.2409 6.29492 66.4432 6.12305 66.6079C5.95117 66.7726 5.74349 66.855 5.5 66.855C5.25651 66.855 5.04883 66.7726 4.87695 66.6079ZM9.51758 77.9033V69.9272H10.8926V70.3569C11.3402 69.9953 11.8594 69.8145 12.4502 69.8145C12.9264 69.8145 13.3651 69.9362 13.7661 70.1797C14.1672 70.4232 14.484 70.758 14.7168 71.1841C14.9531 71.6102 15.0713 72.0811 15.0713 72.5967C15.0713 73.3307 14.8475 73.9556 14.3999 74.4712C14.16 74.7469 13.8592 74.9653 13.4976 75.1265C13.1395 75.2876 12.7653 75.3682 12.375 75.3682C11.8451 75.3682 11.3688 75.207 10.9463 74.8848V77.9033H9.51758ZM10.9463 71.7964V73.3916C11.0859 73.5957 11.2686 73.7568 11.4941 73.875C11.7197 73.9932 11.965 74.0522 12.23 74.0522C12.6346 74.0522 12.9712 73.9144 13.2397 73.6387C13.5083 73.363 13.6426 73.0156 13.6426 72.5967C13.6426 72.1992 13.5137 71.8573 13.2559 71.5708C13.0016 71.2808 12.6722 71.1357 12.2676 71.1357C11.999 71.1357 11.7484 71.1948 11.5156 71.313C11.2865 71.4312 11.0967 71.5923 10.9463 71.7964ZM16.2852 77.9033V69.9272H17.6602V70.3569C18.1077 69.9953 18.627 69.8145 19.2178 69.8145C19.694 69.8145 20.1326 69.9362 20.5337 70.1797C20.9347 70.4232 21.2516 70.758 21.4844 71.1841C21.7207 71.6102 21.8389 72.0811 21.8389 72.5967C21.8389 73.3307 21.6151 73.9556 21.1675 74.4712C20.9276 74.7469 20.6268 74.9653 20.2651 75.1265C19.9071 75.2876 19.5329 75.3682 19.1426 75.3682C18.6126 75.3682 18.1364 75.207 17.7139 74.8848V77.9033H16.2852ZM17.7139 71.7964V73.3916C17.8535 73.5957 18.0361 73.7568 18.2617 73.875C18.4873 73.9932 18.7326 74.0522 18.9976 74.0522C19.4022 74.0522 19.7388 73.9144 20.0073 73.6387C20.2759 73.363 20.4102 73.0156 20.4102 72.5967C20.4102 72.1992 20.2812 71.8573 20.0234 71.5708C19.7692 71.2808 19.4398 71.1357 19.0352 71.1357C18.7666 71.1357 18.516 71.1948 18.2832 71.313C18.054 71.4312 17.8643 71.5923 17.7139 71.7964ZM26.8877 73.6011L27.6987 74.4121C27.4445 74.7165 27.1222 74.9528 26.7319 75.1211C26.3416 75.2858 25.9352 75.3682 25.5127 75.3682C24.7035 75.3682 24.0356 75.1121 23.5093 74.6001C22.9829 74.0881 22.7197 73.4202 22.7197 72.5967C22.7197 72.2279 22.7806 71.8752 22.9023 71.5386C23.0277 71.202 23.1995 70.9066 23.418 70.6523C23.64 70.3945 23.9139 70.1904 24.2397 70.04C24.5692 69.8896 24.9272 69.8145 25.314 69.8145C25.7938 69.8145 26.2271 69.9398 26.6138 70.1904C27.0005 70.4375 27.2995 70.7687 27.5107 71.1841C27.7256 71.5994 27.833 72.0524 27.833 72.543C27.833 72.6934 27.8223 72.8294 27.8008 72.9512H24.1055C24.1413 73.3236 24.2952 73.6279 24.5674 73.8643C24.8395 74.097 25.1654 74.2134 25.5449 74.2134C25.8206 74.2134 26.0749 74.1525 26.3076 74.0308C26.5439 73.909 26.7373 73.7658 26.8877 73.6011ZM24.1699 71.9038H26.3721C26.3506 71.6567 26.2396 71.4401 26.0391 71.2539C25.8385 71.0641 25.5968 70.9692 25.314 70.9692C25.0239 70.9692 24.7679 71.0623 24.5459 71.2485C24.3275 71.4347 24.2021 71.6532 24.1699 71.9038ZM32.7314 74.0522L32.9517 75.2607C32.744 75.3324 32.4468 75.3682 32.0601 75.3682C31.215 75.3682 30.5991 75.1121 30.2124 74.6001C29.9474 74.2456 29.8149 73.7139 29.8149 73.0049V71.1357H28.3325V69.9272H29.8149V68.4395H31.249V69.9272H33.0054V71.1357H31.249V73.1714C31.249 73.4829 31.3063 73.7067 31.4209 73.8428C31.5749 74.0182 31.8184 74.106 32.1514 74.106C32.377 74.106 32.5703 74.0881 32.7314 74.0522ZM38.2852 74.0522L38.5054 75.2607C38.2977 75.3324 38.0005 75.3682 37.6138 75.3682C36.7687 75.3682 36.1528 75.1121 35.7661 74.6001C35.5011 74.2456 35.3687 73.7139 35.3687 73.0049V71.1357H33.8862V69.9272H35.3687V68.4395H36.8027V69.9272H38.5591V71.1357H36.8027V73.1714C36.8027 73.4829 36.86 73.7067 36.9746 73.8428C37.1286 74.0182 37.3721 74.106 37.7051 74.106C37.9307 74.106 38.124 74.0881 38.2852 74.0522ZM41.3682 69.9272V75.2607H39.9395V69.9272H41.3682ZM39.9932 68.6812C39.8105 68.5057 39.7192 68.2891 39.7192 68.0312C39.7192 67.7734 39.8105 67.5568 39.9932 67.3813C40.1758 67.2059 40.396 67.1182 40.6538 67.1182C40.9116 67.1182 41.1318 67.2059 41.3145 67.3813C41.4971 67.5568 41.5884 67.7734 41.5884 68.0312C41.5884 68.2891 41.4971 68.5057 41.3145 68.6812C41.1318 68.8566 40.9116 68.9443 40.6538 68.9443C40.396 68.9443 40.1758 68.8566 39.9932 68.6812ZM46.707 73.3916V71.7964C46.5566 71.5923 46.3651 71.4312 46.1323 71.313C45.9032 71.1948 45.6543 71.1357 45.3857 71.1357C44.9811 71.1357 44.6499 71.2808 44.3921 71.5708C44.1379 71.8573 44.0107 72.1992 44.0107 72.5967C44.0107 73.0156 44.1432 73.363 44.4082 73.6387C44.6768 73.9144 45.0133 74.0522 45.418 74.0522C45.6829 74.0522 45.9282 73.9932 46.1538 73.875C46.383 73.7533 46.5674 73.5921 46.707 73.3916ZM48.1357 75.2607H46.7607V74.8311C46.3418 75.1891 45.8459 75.3682 45.2729 75.3682C44.8826 75.3682 44.5103 75.2876 44.1558 75.1265C43.8013 74.9653 43.5041 74.7469 43.2642 74.4712C42.8094 73.9448 42.582 73.32 42.582 72.5967C42.582 71.8125 42.8363 71.1536 43.3447 70.6201C43.8532 70.083 44.4709 69.8145 45.1978 69.8145C45.7814 69.8145 46.2845 69.9792 46.707 70.3086V67.4512H48.1357V75.2607ZM53.5176 73.6011L54.3286 74.4121C54.0744 74.7165 53.7521 74.9528 53.3618 75.1211C52.9715 75.2858 52.5651 75.3682 52.1426 75.3682C51.3333 75.3682 50.6655 75.1121 50.1392 74.6001C49.6128 74.0881 49.3496 73.4202 49.3496 72.5967C49.3496 72.2279 49.4105 71.8752 49.5322 71.5386C49.6576 71.202 49.8294 70.9066 50.0479 70.6523C50.2699 70.3945 50.5438 70.1904 50.8696 70.04C51.1991 69.8896 51.5571 69.8145 51.9438 69.8145C52.4237 69.8145 52.8569 69.9398 53.2437 70.1904C53.6304 70.4375 53.9294 70.7687 54.1406 71.1841C54.3555 71.5994 54.4629 72.0524 54.4629 72.543C54.4629 72.6934 54.4521 72.8294 54.4307 72.9512H50.7354C50.7712 73.3236 50.9251 73.6279 51.1973 73.8643C51.4694 74.097 51.7952 74.2134 52.1748 74.2134C52.4505 74.2134 52.7048 74.1525 52.9375 74.0308C53.1738 73.909 53.3672 73.7658 53.5176 73.6011ZM50.7998 71.9038H53.002C52.9805 71.6567 52.8695 71.4401 52.6689 71.2539C52.4684 71.0641 52.2267 70.9692 51.9438 70.9692C51.6538 70.9692 51.3978 71.0623 51.1758 71.2485C50.9574 71.4347 50.832 71.6532 50.7998 71.9038ZM59.082 69.8574L58.9209 71.1895C58.8135 71.1536 58.6416 71.1357 58.4053 71.1357C58.1188 71.1357 57.8574 71.2163 57.6211 71.3774C57.3848 71.5386 57.2129 71.714 57.1055 71.9038V75.2607H55.6768V69.9272H57.0518V70.4644C57.2129 70.2638 57.4295 70.1063 57.7017 69.9917C57.9774 69.8735 58.2764 69.8145 58.5986 69.8145C58.7132 69.8145 58.8743 69.8288 59.082 69.8574Z" fill="#004B66"/>
<defs>
<clipPath id="clip0">
<rect width="45.6865" height="45.6865" fill="white" transform="translate(7)"/>
</clipPath>
</defs>
</svg>
