<svg width="18" height="18" viewBox="0 0 18 18" fill="none" xmlns="http://www.w3.org/2000/svg">
<path fill-rule="evenodd" clip-rule="evenodd" d="M6.71048 11.5439C5.75452 11.5439 4.82003 11.2604 4.02518 10.7293C3.23032 10.1982 2.61081 9.44334 2.24498 8.56015C1.87915 7.67696 1.78343 6.70512 1.96993 5.76753C2.15643 4.82993 2.61677 3.9687 3.29274 3.29273C3.9687 2.61677 4.82994 2.15643 5.76753 1.96993C6.70512 1.78343 7.67696 1.87915 8.56015 2.24498C9.44335 2.61081 10.1982 3.23032 10.7293 4.02517C11.2604 4.82003 11.5439 5.75452 11.5439 6.71048C11.5429 7.99207 11.0333 9.22086 10.1271 10.1271C9.22087 11.0333 7.99207 11.5429 6.71048 11.5439V11.5439ZM6.71048 0C5.38267 0.000773334 4.08489 0.395223 2.98123 1.13348C1.87757 1.87174 1.01758 2.92065 0.509984 4.14761C0.00238717 5.37458 -0.130022 6.72449 0.129495 8.0267C0.389013 9.32891 1.0288 10.5249 1.96798 11.4636C2.90716 12.4022 4.10356 13.0413 5.40592 13.3001C6.70828 13.5588 8.05811 13.4256 9.28478 12.9173C10.5114 12.409 11.5599 11.5484 12.2975 10.4443C13.0351 9.34021 13.4288 8.04221 13.4288 6.71439C13.4277 4.93326 12.7195 3.22544 11.4597 1.96636C10.1998 0.707282 8.49161 -3.0173e-07 6.71048 0" fill="#FFE0E3"/>
<path fill-rule="evenodd" clip-rule="evenodd" d="M17.7063 16.3422L16.3728 17.6718L12.1025 13.4054C12.5953 13.0117 13.0414 12.563 13.4321 12.068L17.7063 16.3422Z" fill="#FFE0E3"/>
<path fill-rule="evenodd" clip-rule="evenodd" d="M17.7063 16.3422L16.3728 17.6718L12.1025 13.4054C12.5953 13.0117 13.0414 12.563 13.4321 12.068L17.7063 16.3422Z" fill="#003A5D"/>
<path fill-rule="evenodd" clip-rule="evenodd" d="M6.71048 11.5439C5.75452 11.5439 4.82003 11.2604 4.02518 10.7293C3.23032 10.1982 2.61081 9.44334 2.24498 8.56015C1.87915 7.67696 1.78343 6.70512 1.96993 5.76753C2.15643 4.82993 2.61677 3.9687 3.29274 3.29273C3.9687 2.61677 4.82994 2.15643 5.76753 1.96993C6.70512 1.78343 7.67696 1.87915 8.56015 2.24498C9.44335 2.61081 10.1982 3.23032 10.7293 4.02517C11.2604 4.82003 11.5439 5.75452 11.5439 6.71048C11.5429 7.99207 11.0333 9.22086 10.1271 10.1271C9.22087 11.0333 7.99207 11.5429 6.71048 11.5439V11.5439ZM6.71048 0C5.38267 0.000773334 4.08489 0.395223 2.98123 1.13348C1.87757 1.87174 1.01758 2.92065 0.509984 4.14761C0.00238717 5.37458 -0.130022 6.72449 0.129495 8.0267C0.389013 9.32891 1.0288 10.5249 1.96798 11.4636C2.90716 12.4022 4.10356 13.0413 5.40592 13.3001C6.70828 13.5588 8.05811 13.4256 9.28478 12.9173C10.5114 12.409 11.5599 11.5484 12.2975 10.4443C13.0351 9.34021 13.4288 8.04221 13.4288 6.71439C13.4277 4.93326 12.7195 3.22544 11.4597 1.96636C10.1998 0.707282 8.49161 -3.0173e-07 6.71048 0" fill="#003A5D"/>
</svg>
