<svg width="101" height="52" viewBox="0 0 101 52" fill="none" xmlns="http://www.w3.org/2000/svg">
<path d="M8.58074 39.7072C6.81406 40.0437 5.63628 39.2865 4.83706 38.5714L4.75294 38.4873L3.95373 39.5389L4.03785 39.581C5.46802 40.8429 7.06644 41.3056 8.83312 40.927C11.0204 40.5064 12.4085 38.6135 11.9879 36.5944C11.7355 35.2905 10.8522 34.3651 9.33789 33.7762C8.70693 33.5238 8.03391 33.3976 7.36089 33.2714C5.8466 32.9349 4.54262 32.6825 4.24817 31.3785C3.99579 30.0746 4.83706 28.9809 6.3093 28.6865C7.27676 28.5182 8.03391 28.6444 9.04344 29.2333L9.12757 29.2754L9.75853 28.1396L9.6744 28.0976C9.25376 27.8452 7.90772 27.088 6.05691 27.4666C3.8696 27.8872 2.56562 29.696 2.98626 31.715C3.28071 33.1452 4.37436 33.7341 5.34183 34.1127C5.93072 34.323 6.60374 34.4913 7.2347 34.6174C8.83312 34.954 10.3474 35.2905 10.6839 36.8889C10.9363 38.3191 9.80059 39.4548 8.58074 39.7072Z" fill="#FF5C6F"/>
<path d="M20.5694 26.0785L20.317 24.8166L13.082 26.2468L15.69 39.3706L23.0932 37.9405L22.8408 36.6786L16.7416 37.8984L15.69 32.5143L20.317 31.5889L20.0646 30.369L15.4376 31.2944L14.6384 27.2563L20.5694 26.0785Z" fill="#FF5C6F"/>
<path d="M29.3183 35.5849C27.5516 35.9214 26.3738 35.1643 25.5746 34.4492L25.4905 34.3651L24.6913 35.4167L24.7754 35.4587C26.2056 36.7206 27.804 37.1833 29.5707 36.8048C31.758 36.3841 33.1461 34.4913 32.7255 32.4722C32.4731 31.1682 31.5897 30.2428 30.0754 29.6539C29.4445 29.4015 28.7715 29.2753 28.0984 29.1492C26.5841 28.8126 25.2802 28.5603 24.9857 27.2563C24.7333 25.9523 25.5746 24.8587 27.0468 24.5642C28.0143 24.3959 28.7715 24.5221 29.781 25.111L29.8651 25.1531L30.4961 24.0174L30.4119 23.9753C29.9913 23.7229 28.6453 22.9658 26.7945 23.3444C24.6071 23.765 23.3032 25.5737 23.7238 27.5928C24.0183 29.023 25.1119 29.6119 26.0794 29.9904C26.6683 30.2007 27.3413 30.369 27.9722 30.4952C29.5707 30.8317 31.085 31.1682 31.4215 32.7666C31.7159 34.1968 30.5381 35.3746 29.3183 35.5849Z" fill="#FF5C6F"/>
<path d="M45.3031 32.4301C43.5364 32.7666 42.3586 32.0095 41.5594 31.2944L41.4753 31.2103L40.7181 32.2619L40.8023 32.3039C42.2324 33.5658 43.8308 34.0285 45.5975 33.65C47.7848 33.2293 49.1729 31.3365 48.7523 29.3174C48.4999 28.0134 47.6166 27.088 46.1023 26.4991C45.4713 26.2468 44.7983 26.1206 44.1253 25.9944C42.611 25.6579 41.307 25.4055 41.0126 24.1015C40.7602 22.7975 41.6015 21.7039 43.0737 21.4094C44.0412 21.2412 44.7983 21.3674 45.8078 21.9562L45.892 21.9983L46.5229 20.8626L46.4388 20.8205C46.0182 20.5681 44.6721 19.811 42.8213 20.1896C40.634 20.6102 39.33 22.4189 39.7507 24.438C40.0451 25.8682 41.1388 26.4571 42.1062 26.8356C42.6951 27.046 43.3681 27.2142 43.9991 27.3404C45.5975 27.6769 47.1118 28.0134 47.4483 29.6119C47.7007 31.042 46.565 32.1777 45.3031 32.4301Z" fill="#FF5C6F"/>
<path d="M61.2865 27.7611L50.6443 18.8435L49.761 19.0118L52.3689 32.1357L53.6309 31.8833L51.5277 21.2832L62.1698 30.1587L62.2119 30.2007L63.0952 29.9904L60.4872 16.8665L59.1833 17.1189L61.2865 27.7611Z" fill="#FF5C6F"/>
<path d="M69.2796 15.1419L68.4383 15.3102L65.4097 29.4436L65.3677 29.5698L66.6717 29.3174L67.5971 25.069L73.7804 23.8491L76.2201 27.3825L76.2622 27.4245L77.5662 27.1722L69.3217 15.226L69.2796 15.1419ZM72.9812 22.7134L67.8915 23.7229L69.2796 17.2872L72.9812 22.7134Z" fill="#FF5C6F"/>
<path d="M85.978 15.2261C85.8098 14.3006 85.2209 13.5014 84.4637 13.0387C83.7066 12.576 82.8232 12.4919 81.7296 12.7022L77.2288 13.5856L79.8367 26.7095L81.1407 26.4571L79.8367 19.8531L81.8978 19.4324L88.1653 25.0269L88.2074 25.069L89.7638 24.7745L83.4542 19.138C84.3796 18.8856 85.0106 18.465 85.4733 17.8761C85.936 17.0769 86.1463 16.1094 85.978 15.2261ZM78.7431 14.553L81.8978 13.9221C82.7391 13.7538 83.2859 13.7959 83.7486 14.0903C84.2534 14.3848 84.5899 14.8895 84.7161 15.4364C84.8423 15.9832 84.7161 16.5721 84.3375 17.0348C84.001 17.4975 83.5383 17.7499 82.697 17.9181L79.5423 18.5491L78.7431 14.553Z" fill="#FF5C6F"/>
<path d="M94.8539 23.7229L92.4984 11.8189L96.2 11.1038L95.9897 9.84189L87.2825 11.5665L87.5349 12.8284L91.2365 12.0713L93.592 23.9753L94.8539 23.7229Z" fill="#FF5C6F"/>
<path d="M22.8824 48.0778C23.8498 48.4144 24.9014 48.7509 26.7522 48.3723C28.603 47.9937 29.4443 47.2786 30.2015 46.6056C30.9165 45.9747 31.5896 45.4278 33.1039 45.1334C34.6182 44.8389 35.4174 45.0913 36.3428 45.4278C37.3102 45.7643 38.3618 46.1008 40.2126 45.7223C42.0634 45.3437 42.9047 44.6286 43.6619 43.9556C44.377 43.3246 45.0079 42.7778 46.5643 42.4834C48.0786 42.1889 48.8778 42.4413 49.8032 42.7778C50.7706 43.1143 51.8222 43.4508 53.673 43.0723C55.5238 42.6937 56.3651 41.9786 57.1223 41.3056C57.8374 40.6746 58.5104 40.1278 60.0247 39.8333C61.539 39.5389 62.3382 39.7913 63.2636 40.1278C64.231 40.4643 65.2826 40.8008 67.1334 40.4643C68.9843 40.0857 69.8255 39.3706 70.5827 38.6976C71.2978 38.0667 71.9708 37.5198 73.4851 37.2254C74.9994 36.931 75.7986 37.1833 76.724 37.5198C77.6915 37.8564 78.743 38.1929 80.5939 37.8143C82.4447 37.4357 83.2859 36.7206 84.0431 36.0476C84.7582 35.4167 85.4312 34.8698 86.9455 34.5754C88.4598 34.2809 89.259 34.5333 90.1844 34.8698C91.1519 35.2063 92.2035 35.5428 94.0543 35.1643C95.9051 34.7857 96.7463 34.0706 97.5035 33.3976C98.2186 32.7666 98.8916 32.2198 100.406 31.9254L100.154 30.7055C98.3027 31.0841 97.4614 31.7992 96.7043 32.4722C95.9471 33.1031 95.3162 33.65 93.8019 33.9444C92.2876 34.2389 91.4884 33.9865 90.563 33.65C89.5955 33.3135 88.5439 32.977 86.6931 33.3555C84.8423 33.7341 84.001 34.4492 83.2439 35.1222C82.5288 35.7532 81.8558 36.3 80.3415 36.5944C78.8272 36.8889 78.028 36.6365 77.1026 36.3C76.1351 35.9635 75.0835 35.627 73.2327 36.0055C71.3819 36.3841 70.5406 37.0992 69.7835 37.7722C69.0684 38.4032 68.3954 38.95 66.8811 39.2445C65.3668 39.5389 64.5676 39.2865 63.6422 38.95C62.6747 38.6135 61.6231 38.277 59.7723 38.6135C57.9215 38.9921 57.0802 39.7072 56.3231 40.3802C55.608 41.0111 54.935 41.558 53.4207 41.8524C51.9064 42.1469 51.1072 41.8945 50.1818 41.558C49.2143 41.2215 48.1627 40.8849 46.3119 41.2635C44.4611 41.6421 43.6198 42.3572 42.8627 43.0302C42.1476 43.6611 41.5166 44.208 39.9603 44.5024C38.446 44.7969 37.6467 44.5445 36.7213 44.208C35.7539 43.8715 34.7023 43.535 32.8515 43.9135C31.0007 44.2921 30.1594 45.0072 29.4022 45.6802C28.6872 46.3112 28.0141 46.858 26.4998 47.1524C24.9856 47.4469 24.1863 47.1945 23.2609 46.858C22.2935 46.5215 21.2419 46.185 19.3911 46.5215C17.5403 46.9001 16.699 47.6151 15.9418 48.2882C15.2268 48.9191 14.5537 49.466 13.0394 49.7604C11.5251 50.0548 10.7259 49.8025 9.80053 49.466C8.83306 49.1294 7.78147 48.7929 5.93066 49.1715L6.18305 50.3914C7.69734 50.0969 8.49655 50.3493 9.42196 50.6858C10.3894 51.0223 11.441 51.3588 13.2918 50.9802C15.1426 50.6017 15.9839 49.8866 16.7411 49.2136C17.4561 48.5826 18.1292 48.0358 19.6435 47.7413C21.1577 47.489 21.957 47.7413 22.8824 48.0778Z" fill="#FF5C6F"/>
<path d="M6.60401 17.2031C8.11831 16.9086 8.91752 17.161 9.84292 17.4975C10.8104 17.834 11.862 18.1705 13.7128 17.792C15.5636 17.4134 16.4049 16.6983 17.162 16.0253C17.8771 15.3943 18.5501 14.8475 20.0644 14.553C21.5787 14.2586 22.3779 14.511 23.3033 14.8475C24.2708 15.184 25.3224 15.5205 27.1732 15.1419C29.024 14.7634 29.8653 14.0483 30.6224 13.3753C31.3375 12.7443 32.0105 12.1975 33.5248 11.903C35.0391 11.6086 35.8383 11.861 36.7637 12.1975C37.7312 12.534 38.7828 12.8705 40.6336 12.534C42.4844 12.1554 43.3257 11.4403 44.0828 10.7673C44.7979 10.1364 45.4709 9.58953 46.9852 9.29508C48.4995 9.00063 49.2987 9.25302 50.2241 9.58953C51.1916 9.92604 52.2432 10.2625 54.094 9.92603C55.9448 9.54746 56.7861 8.83238 57.5432 8.15936C58.2583 7.5284 58.8893 6.98157 60.4456 6.68713C61.9599 6.39268 62.7591 6.64506 63.6845 6.98157C64.652 7.31808 65.7036 7.65459 67.5544 7.27602C69.4052 6.89744 70.2465 6.18236 71.0036 5.50934C71.7187 4.87838 72.3917 4.33155 73.906 4.03711C75.4203 3.74266 76.2195 3.99504 77.1449 4.33155C78.1124 4.66806 79.164 5.00457 81.0148 4.626C82.8656 4.24743 83.7069 3.53234 84.464 2.85932C85.1791 2.22837 85.8521 1.68154 87.3664 1.38709C88.8807 1.09264 89.6799 1.34503 90.6054 1.68154C91.5728 2.01805 92.6244 2.35456 94.4752 1.97598L94.2228 0.756134C92.7085 1.05058 91.9093 0.798198 90.9839 0.461688C90.0165 0.125178 88.9649 -0.211332 87.1141 0.167242C85.2633 0.545816 84.422 1.2609 83.6648 1.93392C82.9497 2.56488 82.2767 3.11171 80.7624 3.40615C79.2481 3.7006 78.4489 3.44822 77.5235 3.11171C76.5561 2.77519 75.5045 2.43868 73.6537 2.7752C71.8028 3.15377 70.9616 3.86885 70.2044 4.54187C69.4893 5.17283 68.8163 5.71966 67.302 6.0141C65.7877 6.30855 64.9885 6.05617 64.0631 5.71966C63.0956 5.38315 62.0441 5.04664 60.1933 5.42521C58.3424 5.80379 57.5012 6.51887 56.744 7.19189C56.0289 7.82285 55.3559 8.36968 53.8416 8.66412C52.3273 8.95857 51.5281 8.70619 50.6027 8.36968C49.6352 8.03317 48.5836 7.69666 46.7328 8.03317C44.882 8.41174 44.0408 9.12682 43.2836 9.79984C42.5685 10.4308 41.8955 10.9776 40.3812 11.2721C38.8669 11.5665 38.0677 11.3141 37.1423 10.9776C36.1748 10.6411 35.1232 10.3046 33.2724 10.6832C31.4216 11.0618 30.5804 11.7768 29.8232 12.4499C29.1081 13.0808 28.4351 13.6276 26.9208 13.9221C25.4065 14.2165 24.6073 13.9642 23.6819 13.6276C22.7144 13.3332 21.6628 12.9967 19.812 13.3332C17.9612 13.7118 17.12 14.4269 16.3628 15.0999C15.6477 15.7308 14.9747 16.2777 13.4604 16.5721C11.9461 16.8666 11.1469 16.6142 10.2215 16.2777C9.25403 15.9412 8.20243 15.6046 6.35163 15.9832C4.50082 16.3618 3.65955 17.0769 2.9024 17.7499C2.18732 18.3809 1.5143 18.9277 0 19.2221L0.252383 20.484C2.10319 20.1055 2.94446 19.3904 3.70161 18.7174C4.4167 18.0864 5.04765 17.4975 6.60401 17.2031Z" fill="#FF5C6F"/>
</svg>
