<svg width="20" height="16" viewBox="0 0 20 16" fill="none" xmlns="http://www.w3.org/2000/svg">
<path fill-rule="evenodd" clip-rule="evenodd" d="M14.2092 14.2846H15.3458V9.7114H14.2092V14.2846ZM10.7955 14.2846H11.932V9.7114H10.7955V14.2846V14.2846ZM7.38573 14.2846H8.5223V9.7114H7.38573V14.2846ZM3.98805 14.2846H5.12463V9.7114H3.98805V14.2846ZM1.08436 8L2.52617 14.5671C2.61654 14.9736 2.84201 15.337 3.16542 15.5975C3.48883 15.858 3.89089 15.9999 4.30533 16H15.0285C15.4424 15.9997 15.8439 15.8576 16.1667 15.5971C16.4894 15.3366 16.7141 14.9733 16.8036 14.5671L18.2454 8H1.08436ZM19.3338 4.58527V6.29667H0V4.58527H8.83556V0H10.5384V4.58527" fill="#003A5D"/>
</svg>
