<svg width="1366" height="768" viewBox="0 0 1366 768" fill="none" xmlns="http://www.w3.org/2000/svg">
<path d="M480.76 0H411.33C44.8196 256 400.91 512 34.3896 768H103.81C470.33 512 114.25 256 480.76 0Z" fill="#96C0D6"/>
<path d="M597 0H527.52C161 256 517.09 512 150.57 768H220C586.51 512 230.42 256 597 0Z" fill="#96C0D6"/>
<path d="M713.14 0H643.71C277.2 256 633.28 512 266.71 768H336.14C702.7 512 346.61 256 713.14 0Z" fill="#96C0D6"/>
<path d="M829.32 0H759.89C393.38 256 749.46 512 382.94 768H452.37C818.88 512 462.79 256 829.32 0Z" fill="#96C0D6"/>
<path d="M945.5 0H876.08C509.57 256 865.65 512 499.08 768H568.5C935.07 512 579 256 945.5 0Z" fill="#96C0D6"/>
<path d="M1061.69 0H992.27C625.75 256 981.84 512 615.32 768H684.74C1051.26 512 695.17 256 1061.69 0Z" fill="#96C0D6"/>
<path d="M1177.87 0H1108.45C741.94 256 1098 512 731.5 768H800.92C1167.44 512 811.35 256 1177.87 0Z" fill="#96C0D6"/>
<path d="M1294.06 0H1224.64C858.12 256 1214.21 512 847.64 768H917.06C1283.62 512 927.54 256 1294.06 0Z" fill="#96C0D6"/>
<path d="M1341.71 0H1340.82C974.3 256 1330.39 512 963.87 768H1033.29C1383.71 523.25 1073.61 278.49 1366 33.74V0H1341.71Z" fill="#96C0D6"/>
<path d="M1080.06 768H1149.48C1426.31 574.64 1290.91 381.28 1366 187.92V78.2002C1155.52 308.13 1409.26 538.07 1080.06 768Z" fill="#96C0D6"/>
<path d="M1196.24 768H1265.67C1308.01 738.42 1340.67 708.85 1366 679.27V552.59C1345 624.39 1299.05 696.2 1196.24 768Z" fill="#96C0D6"/>
<path d="M364.57 0H295.15C-38.7 233.19 227 466.37 0 699.56V759.16C346 506.1 2.29001 253.05 364.57 0Z" fill="#96C0D6"/>
<path d="M248.39 0H179C57.35 84.94 15.29 169.88 0 254.82V641.82C140.44 427.87 -57.91 213.93 248.39 0Z" fill="#96C0D6"/>
<path d="M132.21 0H62.78C40.7646 15.2519 19.7914 31.9556 0 50L0 131.88C27.64 87.91 69.27 44 132.21 0Z" fill="#96C0D6"/>
</svg>
