<svg width="35" height="35" viewBox="0 0 50 50" fill="none" xmlns="http://www.w3.org/2000/svg">
<path d="M25 50C38.8071 50 50 38.8071 50 25C50 11.1929 38.8071 0 25 0C11.1929 0 0 11.1929 0 25C0 38.8071 11.1929 50 25 50Z" fill="#004B66"/>
<path d="M37.3737 33.9896C35.9705 31.9283 33.8373 30.4764 31.4049 29.9271L21.6445 27.6458V25.5625L29.8841 27.4792C30.3097 27.5825 30.7516 27.6002 31.1841 27.5312C31.6165 27.4622 32.031 27.3078 32.4032 27.0771C32.7755 26.8464 33.0981 26.5439 33.3523 26.1873C33.6066 25.8307 33.7874 25.4271 33.8841 25C34.0788 24.14 33.9281 23.2379 33.4645 22.4879C33.0008 21.7379 32.2613 21.1999 31.4049 20.9896L21.6445 18.75V16.6667L29.8841 18.5937C30.7434 18.7822 31.6422 18.633 32.3945 18.1771C32.9519 17.8239 33.3923 17.3136 33.6603 16.7106C33.9283 16.1076 34.0118 15.4388 33.9005 14.7884C33.7891 14.138 33.4878 13.535 33.0344 13.0555C32.5811 12.576 31.996 12.2414 31.3529 12.0937L21.6445 9.82292V7.8125H19.1341V9.22917L15.0924 8.33333C14.2745 8.2228 13.4447 8.41965 12.7636 8.88576C12.0824 9.35188 11.5984 10.0541 11.4053 10.8566C11.2121 11.659 11.3235 12.5045 11.718 13.2296C12.1124 13.9546 12.7617 14.5075 13.5404 14.7812L19.1029 16.0833V18.1667L15.0612 17.2187C14.233 17.0932 13.3878 17.284 12.6939 17.7533C12 18.2227 11.5083 18.9361 11.3166 19.7515C11.1249 20.567 11.2472 21.4247 11.6593 22.1541C12.0714 22.8834 12.7429 23.4309 13.5404 23.6875L19.1341 25V27.0833L15.0924 26.1458C14.2672 26.0209 13.4251 26.2102 12.7326 26.6763C12.0401 27.1423 11.5477 27.8512 11.3527 28.6627C11.1576 29.4743 11.2742 30.3295 11.6793 31.0593C12.0843 31.7891 12.7485 32.3404 13.5404 32.6042L19.1029 33.8958V39.6771H11.0195V42.1875H29.7695V39.6771H21.6445V34.4687L29.8841 36.4583C30.226 36.5196 30.5586 36.6247 30.8737 36.7708C31.68 37.0947 32.3497 37.6871 32.7695 38.4479C32.9377 38.8051 33.0401 39.1898 33.0716 39.5833V42.1875H38.9987V39.1458C38.9567 37.3078 38.3932 35.5195 37.3737 33.9896V33.9896Z" fill="white"/>
</svg>
