<svg width="35" height="35" viewBox="0 0 50 50" fill="none" xmlns="http://www.w3.org/2000/svg">
<path d="M25 50C38.8071 50 50 38.8071 50 25C50 11.1929 38.8071 0 25 0C11.1929 0 0 11.1929 0 25C0 38.8071 11.1929 50 25 50Z" fill="#004B66"/>
<path d="M35.1348 24.1256C34.9462 23.9068 34.8408 23.6285 34.837 23.3396C34.8332 23.0507 34.9313 22.7697 35.114 22.546C35.2968 22.3222 35.5525 22.17 35.8363 22.116C36.1201 22.062 36.4139 22.1096 36.666 22.2506L39.6348 16.9694L35.0098 14.3652C34.7841 14.7647 34.4819 15.1157 34.1205 15.3984C33.7591 15.6811 33.3456 15.8898 32.9035 16.0126C32.4615 16.1355 31.9996 16.17 31.5442 16.1144C31.0888 16.0587 30.6488 15.9139 30.2493 15.6882C29.8499 15.4624 29.4988 15.1603 29.2162 14.7989C28.9335 14.4375 28.7248 14.024 28.602 13.5819C28.4791 13.1399 28.4446 12.678 28.5002 12.2226C28.5559 11.7672 28.7007 11.3272 28.9264 10.9277L24.3014 8.33398L21.3223 13.6152C21.4411 13.6871 21.5498 13.7747 21.6452 13.8756C21.8292 14.0943 21.9313 14.3702 21.9339 14.656C21.9365 14.9418 21.8394 15.2195 21.6594 15.4415C21.4794 15.6634 21.2276 15.8157 20.9475 15.8721C20.6673 15.9286 20.3763 15.8856 20.1243 15.7506L10.416 33.0319L15.041 35.6361C15.4969 34.8294 16.2545 34.2368 17.1472 33.9887C18.04 33.7406 18.9947 33.8573 19.8014 34.3131C20.6081 34.769 21.2007 35.5266 21.4488 36.4194C21.6969 37.3121 21.5802 38.2669 21.1243 39.0736V39.0736L25.6973 41.6673L35.416 24.3756C35.3128 24.3036 35.2184 24.2197 35.1348 24.1256V24.1256ZM25.2598 17.709C25.0131 17.9228 24.6921 18.0306 24.3664 18.0092C24.0407 17.9877 23.7367 17.8387 23.5202 17.5944C23.4133 17.4737 23.3315 17.3331 23.2794 17.1806C23.2273 17.0281 23.2059 16.8667 23.2166 16.7059C23.2272 16.5451 23.2697 16.388 23.3415 16.2437C23.4132 16.0994 23.5129 15.9707 23.6348 15.8652C23.8801 15.6502 24.2003 15.5405 24.526 15.56C24.8516 15.5795 25.1564 15.7266 25.3743 15.9694V15.9694C25.5882 16.2113 25.6973 16.5281 25.6777 16.8503C25.6582 17.1726 25.5116 17.4739 25.2702 17.6881L25.2598 17.709ZM29.166 19.9069C28.9194 20.1207 28.5984 20.2285 28.2727 20.2071C27.947 20.1856 27.6429 20.0366 27.4264 19.7923C27.3196 19.6716 27.2377 19.531 27.1856 19.3785C27.1335 19.226 27.1122 19.0646 27.1228 18.9038C27.1335 18.743 27.1759 18.5859 27.2477 18.4416C27.3195 18.2973 27.4192 18.1687 27.541 18.0631C27.7863 17.8481 28.1066 17.7384 28.4322 17.7579C28.7579 17.7774 29.0627 17.9245 29.2806 18.1673V18.1673C29.3874 18.288 29.4693 18.4286 29.5214 18.5812C29.5735 18.7337 29.5949 18.895 29.5842 19.0558C29.5735 19.2166 29.5311 19.3737 29.4593 19.518C29.3875 19.6623 29.2878 19.791 29.166 19.8965V19.9069ZM33.1035 22.1361C32.8616 22.3499 32.5448 22.459 32.2226 22.4395C31.9004 22.4199 31.599 22.2734 31.3848 22.0319V22.0319C31.171 21.7853 31.0631 21.4642 31.0846 21.1386C31.106 20.8129 31.2551 20.5088 31.4993 20.2923C31.62 20.1855 31.7607 20.1036 31.9132 20.0515C32.0657 19.9994 32.227 19.9781 32.3878 19.9887C32.5487 19.9994 32.7058 20.0418 32.8501 20.1136C32.9944 20.1854 33.123 20.2851 33.2285 20.4069C33.4436 20.6522 33.5532 20.9724 33.5337 21.2981C33.5142 21.6237 33.3671 21.9286 33.1243 22.1465L33.1035 22.1361Z" fill="white"/>
<path d="M11.0312 27.6045L20.9271 10.3857L15.9792 9.13574L11.0312 27.6045Z" fill="white"/>
</svg>
