<svg width="27" height="28" viewBox="0 0 27 28" fill="none" xmlns="http://www.w3.org/2000/svg">
<path fill-rule="evenodd" clip-rule="evenodd" d="M2.99923 24.9916H24.0008V9.96355H2.99923V24.9985V24.9916ZM23.9732 1.98721V3.9813C23.9794 4.32172 23.9353 4.6612 23.8422 4.98869C23.6255 5.71031 23.1821 6.34282 22.5779 6.79246C21.9737 7.2421 21.2408 7.48491 20.4879 7.48491C19.7349 7.48491 19.002 7.2421 18.3978 6.79246C17.7936 6.34282 17.3503 5.71031 17.1336 4.98869C17.0217 4.66403 16.959 4.32449 16.9474 3.9813V1.98721H9.99745V3.9813C9.99805 4.32185 9.95164 4.66085 9.85955 4.98869C9.64069 5.70926 9.19617 6.34035 8.59158 6.78882C7.98698 7.23728 7.25435 7.47938 6.50179 7.47938C5.74922 7.47938 5.01659 7.23728 4.412 6.78882C3.80741 6.34035 3.36288 5.70926 3.14402 4.98869C3.04626 4.6619 2.99747 4.32241 2.99923 3.9813V1.98721H0V28H27V1.98721H23.9732Z" fill="#043B54"/>
<path fill-rule="evenodd" clip-rule="evenodd" d="M9.3008 14.483C9.3008 14.7993 9.20716 15.1085 9.03169 15.3716C8.85623 15.6347 8.60682 15.8399 8.31493 15.9612C8.02304 16.0826 7.70177 16.1147 7.39167 16.0535C7.08157 15.9923 6.79654 15.8405 6.57256 15.6173C6.34859 15.3941 6.1957 15.1096 6.1332 14.7995C6.0707 14.4894 6.1014 14.1678 6.22141 13.8751C6.34142 13.5825 6.54537 13.332 6.80752 13.1553C7.06966 12.9786 7.37824 12.8836 7.69432 12.8822C8.11919 12.8822 8.52677 13.0506 8.82784 13.3506C9.12892 13.6506 9.29898 14.0578 9.3008 14.483V14.483ZM15.0993 14.483C15.0993 14.7996 15.0055 15.1091 14.8297 15.3723C14.654 15.6356 14.4042 15.8408 14.1119 15.9619C13.8196 16.0831 13.498 16.1148 13.1877 16.053C12.8774 15.9912 12.5924 15.8388 12.3686 15.6149C12.1449 15.391 11.9926 15.1058 11.9309 14.7953C11.8692 14.4848 11.9008 14.1629 12.0219 13.8704C12.143 13.5779 12.348 13.3279 12.611 13.152C12.8741 12.9761 13.1834 12.8822 13.4997 12.8822C13.924 12.8822 14.3308 13.0508 14.6308 13.3511C14.9308 13.6513 15.0993 14.0584 15.0993 14.483V14.483ZM20.8978 14.483C20.8978 14.7996 20.804 15.1091 20.6283 15.3723C20.4525 15.6356 20.2027 15.8408 19.9104 15.9619C19.6181 16.0831 19.2965 16.1148 18.9862 16.053C18.6759 15.9912 18.3909 15.8388 18.1672 15.6149C17.9435 15.391 17.7911 15.1058 17.7294 14.7953C17.6677 14.4848 17.6993 14.1629 17.8204 13.8704C17.9415 13.5779 18.1465 13.3279 18.4096 13.152C18.6726 12.9761 18.9819 12.8822 19.2982 12.8822C19.7225 12.8822 20.1293 13.0508 20.4293 13.3511C20.7293 13.6513 20.8978 14.0584 20.8978 14.483V14.483ZM9.3008 20.2099C9.3008 20.5262 9.20716 20.8355 9.03169 21.0986C8.85623 21.3617 8.60682 21.5668 8.31493 21.6882C8.02304 21.8096 7.70177 21.8417 7.39167 21.7804C7.08157 21.7192 6.79654 21.5675 6.57256 21.3443C6.34859 21.1211 6.1957 20.8365 6.1332 20.5264C6.0707 20.2164 6.1014 19.8947 6.22141 19.6021C6.34142 19.3095 6.54537 19.059 6.80752 18.8823C7.06966 18.7055 7.37824 18.6105 7.69432 18.6091C8.11919 18.6091 8.52677 18.7776 8.82784 19.0776C9.12892 19.3776 9.29898 19.7847 9.3008 20.2099V20.2099ZM15.0993 20.2099C15.1007 20.5268 15.008 20.837 14.8331 21.1012C14.6582 21.3653 14.4088 21.5716 14.1167 21.6938C13.8245 21.816 13.5027 21.8487 13.1919 21.7877C12.8812 21.7267 12.5955 21.5748 12.3711 21.3512C12.1467 21.1276 11.9937 20.8424 11.9314 20.5317C11.8691 20.221 11.9004 19.8987 12.0213 19.6058C12.1421 19.3129 12.3471 19.0625 12.6103 18.8863C12.8735 18.7101 13.1831 18.616 13.4997 18.616C13.9228 18.616 14.3286 18.7837 14.6284 19.0825C14.9282 19.3812 15.0975 19.7866 15.0993 20.2099V20.2099ZM20.8978 20.2099C20.8978 20.5265 20.804 20.836 20.6283 21.0993C20.4525 21.3625 20.2027 21.5677 19.9104 21.6889C19.6181 21.81 19.2965 21.8417 18.9862 21.78C18.6759 21.7182 18.3909 21.5657 18.1672 21.3419C17.9435 21.118 17.7911 20.8328 17.7294 20.5222C17.6677 20.2117 17.6993 19.8898 17.8204 19.5973C17.9415 19.3048 18.1465 19.0548 18.4096 18.8789C18.6726 18.703 18.9819 18.6091 19.2982 18.6091C19.7225 18.6091 20.1293 18.7778 20.4293 19.078C20.7293 19.3782 20.8978 19.7854 20.8978 20.2099V20.2099ZM7.9839 0V3.98127C7.98935 4.35297 7.85385 4.71294 7.60468 4.98866C7.46374 5.1453 7.29147 5.27054 7.09905 5.35627C6.90663 5.442 6.69836 5.4863 6.48773 5.4863C6.2771 5.4863 6.06882 5.442 5.8764 5.35627C5.68398 5.27054 5.51172 5.1453 5.37077 4.98866C5.11969 4.71363 4.98178 4.35378 4.98466 3.98127V0H7.9839ZM21.9596 0V3.98127C21.9651 4.35297 21.8296 4.71294 21.5804 4.98866C21.4395 5.1453 21.2672 5.27054 21.0748 5.35627C20.8824 5.442 20.6741 5.4863 20.4635 5.4863C20.2528 5.4863 20.0446 5.442 19.8521 5.35627C19.6597 5.27054 19.4875 5.1453 19.3465 4.98866C19.0954 4.71363 18.9575 4.35378 18.9604 3.98127V0H21.9596Z" fill="#043B54"/>
</svg>
