<svg width="35" height="35" viewBox="0 0 50 50" fill="none" xmlns="http://www.w3.org/2000/svg">
<path d="M25 50C38.8071 50 50 38.8071 50 25C50 11.1929 38.8071 0 25 0C11.1929 0 0 11.1929 0 25C0 38.8071 11.1929 50 25 50Z" fill="#004B66"/>
<path d="M17.3029 27.0101H25.0008C25.2635 26.9894 25.5123 26.8833 25.7091 26.708C25.8844 26.5241 26.0005 26.2919 26.0425 26.0414V15.6247H23.3862V24.3747H16.6675V26.9997L17.3029 27.0101Z" fill="white"/>
<path d="M30.688 20.6462C31.4992 20.6462 32.1568 19.9886 32.1568 19.1775C32.1568 18.3663 31.4992 17.7087 30.688 17.7087C29.8769 17.7087 29.2193 18.3663 29.2193 19.1775C29.2193 19.9886 29.8769 20.6462 30.688 20.6462Z" fill="white"/>
<path d="M33.855 26.8962C34.6662 26.8962 35.3238 26.2386 35.3238 25.4274C35.3238 24.6162 34.6662 23.9587 33.855 23.9587C33.0439 23.9587 32.3863 24.6162 32.3863 25.4274C32.3863 26.2386 33.0439 26.8962 33.855 26.8962Z" fill="white"/>
<path d="M30.688 33.136C31.4992 33.136 32.1568 32.4784 32.1568 31.6672C32.1568 30.856 31.4992 30.1984 30.688 30.1984C29.8769 30.1984 29.2193 30.856 29.2193 31.6672C29.2193 32.4784 29.8769 33.136 30.688 33.136Z" fill="white"/>
<path d="M24.4374 36.3225C25.2485 36.3225 25.9061 35.665 25.9061 34.8538C25.9061 34.0426 25.2485 33.385 24.4374 33.385C23.6262 33.385 22.9686 34.0426 22.9686 34.8538C22.9686 35.665 23.6262 36.3225 24.4374 36.3225Z" fill="white"/>
<path d="M18.0938 33.136C18.9049 33.136 19.5625 32.4784 19.5625 31.6672C19.5625 30.856 18.9049 30.1984 18.0938 30.1984C17.2826 30.1984 16.625 30.856 16.625 31.6672C16.625 32.4784 17.2826 33.136 18.0938 33.136Z" fill="white"/>
<path d="M25 12.0838C27.5547 12.0838 30.052 12.8414 32.1761 14.2607C34.3003 15.68 35.9558 17.6973 36.9335 20.0575C37.9111 22.4177 38.1669 25.0148 37.6685 27.5204C37.1701 30.026 35.9399 32.3275 34.1335 34.1339C32.327 35.9404 30.0255 37.1706 27.5199 37.669C25.0143 38.1674 22.4172 37.9116 20.057 36.9339C17.6968 35.9563 15.6795 34.3007 14.2602 32.1766C12.8409 30.0525 12.0833 27.5552 12.0833 25.0005C12.0833 21.5748 13.4442 18.2894 15.8665 15.867C18.2889 13.4447 21.5743 12.0838 25 12.0838V12.0838ZM25 9.37549C21.9097 9.37549 18.8887 10.2919 16.3192 12.0088C13.7497 13.7257 11.747 16.166 10.5644 19.0211C9.38177 21.8762 9.07234 25.0178 9.67524 28.0488C10.2781 31.0797 11.7663 33.8638 13.9515 36.049C16.1367 38.2342 18.9208 39.7224 21.9517 40.3253C24.9827 40.9282 28.1243 40.6187 30.9794 39.4361C33.8345 38.2535 36.2748 36.2508 37.9917 33.6813C39.7086 31.1118 40.625 28.0908 40.625 25.0005C40.625 20.8565 38.9788 16.8822 36.0486 13.9519C33.1183 11.0217 29.144 9.37549 25 9.37549Z" fill="white"/>
</svg>
