<svg width="28" height="28" viewBox="0 0 28 28" fill="none" xmlns="http://www.w3.org/2000/svg">
<path fill-rule="evenodd" clip-rule="evenodd" d="M10.6114 18.2907C9.09972 18.2907 7.62199 17.8416 6.36508 17.0001C5.10817 16.1586 4.12852 14.9625 3.55003 13.5631C2.97153 12.1638 2.82017 10.6239 3.11509 9.13835C3.41 7.65279 4.13794 6.2882 5.20686 5.21717C6.27578 4.14614 7.63766 3.41675 9.12029 3.12125C10.6029 2.82576 12.1397 2.97742 13.5363 3.55706C14.9329 4.1367 16.1266 5.11828 16.9665 6.37768C17.8063 7.63709 18.2546 9.11774 18.2546 10.6324C18.2529 12.663 17.4471 14.61 16.0141 16.0458C14.5811 17.4817 12.638 18.2891 10.6114 18.2907V18.2907ZM10.6114 0C8.5117 0.00122531 6.45951 0.62621 4.71427 1.79594C2.96904 2.96567 1.60912 4.62762 0.806446 6.57168C0.00377488 8.51574 -0.205607 10.6546 0.204773 12.7179C0.615153 14.7812 1.62687 16.6762 3.11201 18.1634C4.59715 19.6506 6.48903 20.6633 8.54847 21.0733C10.6079 21.4832 12.7424 21.2722 14.6822 20.4668C16.6219 19.6614 18.2798 18.2978 19.4462 16.5485C20.6126 14.7991 21.2352 12.7425 21.2352 10.6386C21.2335 7.81651 20.1135 5.11055 18.1213 3.1156C16.1292 1.12065 13.4279 -4.78076e-07 10.6114 0" fill="#FFE0E3"/>
<path fill-rule="evenodd" clip-rule="evenodd" d="M28.0001 25.8933L25.8914 28L19.1387 21.2401C19.9178 20.6164 20.6233 19.9054 21.2412 19.1211L28.0001 25.8933Z" fill="#FFE0E3"/>
<path fill-rule="evenodd" clip-rule="evenodd" d="M28.0001 25.8933L25.8914 28L19.1387 21.2401C19.9178 20.6164 20.6233 19.9054 21.2412 19.1211L28.0001 25.8933Z" fill="#003A5D"/>
<path fill-rule="evenodd" clip-rule="evenodd" d="M10.6114 18.2907C9.09972 18.2907 7.62199 17.8416 6.36508 17.0001C5.10817 16.1586 4.12852 14.9625 3.55003 13.5631C2.97153 12.1638 2.82017 10.6239 3.11509 9.13835C3.41 7.65279 4.13794 6.2882 5.20686 5.21717C6.27578 4.14614 7.63766 3.41675 9.12029 3.12125C10.6029 2.82576 12.1397 2.97742 13.5363 3.55706C14.9329 4.1367 16.1266 5.11828 16.9665 6.37768C17.8063 7.63709 18.2546 9.11774 18.2546 10.6324C18.2529 12.663 17.4471 14.61 16.0141 16.0458C14.5811 17.4817 12.638 18.2891 10.6114 18.2907V18.2907ZM10.6114 0C8.5117 0.00122531 6.45951 0.62621 4.71427 1.79594C2.96904 2.96567 1.60912 4.62762 0.806446 6.57168C0.00377488 8.51574 -0.205607 10.6546 0.204773 12.7179C0.615153 14.7812 1.62687 16.6762 3.11201 18.1634C4.59715 19.6506 6.48903 20.6633 8.54847 21.0733C10.6079 21.4832 12.7424 21.2722 14.6822 20.4668C16.6219 19.6614 18.2798 18.2978 19.4462 16.5485C20.6126 14.7991 21.2352 12.7425 21.2352 10.6386C21.2335 7.81651 20.1135 5.11055 18.1213 3.1156C16.1292 1.12065 13.4279 -4.78076e-07 10.6114 0" fill="#003A5D"/>
</svg>
