<svg width="1669" height="1025" viewBox="0 0 1669 1025" fill="none" xmlns="http://www.w3.org/2000/svg">
<path d="M854.513 754.83C864.313 735.54 877.853 718.13 889.823 699.97C937.173 628.15 942.823 551.09 917.823 470.64C906.993 435.88 884.313 407.51 864.123 377.98C834.343 334.43 828.373 286.87 838.773 236.26C845.573 203.18 865.533 176.94 884.413 150.43C916.513 105.26 932.373 55.3 932.043 0.0200195H850.323C850.373 29.55 845.323 57.89 829.493 83.35C818.233 101.44 806.433 119.19 794.683 136.97C746.923 209.24 741.513 286.68 767.193 367.53C778.193 402.21 801.713 430.03 821.023 460.14C858.183 518.14 860.833 578.14 830.413 639.72C820.733 659.3 806.913 676.34 794.923 694.5C747.193 766.74 741.513 844.12 767.023 925.02C777.703 958.84 800.153 986.24 819.273 1015.4C821.273 1018.4 823.103 1021.4 824.893 1024.46H916.433C904.743 991.58 882.673 964.46 863.923 935.46C826.223 877.15 823.203 816.46 854.513 754.83Z" fill="url(#paint0_linear)"/>
<path d="M102.513 754.81C112.313 735.52 125.853 718.11 137.823 699.95C185.173 628.13 190.823 551.07 165.823 470.62C154.993 435.86 132.313 407.49 112.123 377.96C82.343 334.41 76.373 286.85 86.773 236.24C93.573 203.16 113.533 176.92 132.413 150.41C164.513 105.24 180.373 55.28 180.043 0H98.323C98.373 29.53 93.323 57.87 77.493 83.33C66.233 101.42 54.433 119.17 42.683 136.95C-5.07701 209.22 -10.487 286.66 15.193 367.51C26.193 402.19 49.713 430.01 69.023 460.12C106.183 518.12 108.833 578.12 78.413 639.7C68.733 659.28 54.913 676.32 42.923 694.48C-4.80702 766.72 -10.487 844.1 15.023 925C25.703 958.82 48.153 986.22 67.273 1015.38C69.273 1018.38 71.103 1021.38 72.893 1024.44H164.433C152.743 991.56 130.673 964.44 111.923 935.44C74.223 877.13 71.203 816.44 102.513 754.81Z" fill="url(#paint1_linear)"/>
<path d="M1004.91 754.65C1014.99 734.99 1028.72 717.18 1040.91 698.65C1087.53 627.57 1092.31 551.34 1068.33 471.86C1057.79 436.93 1034.6 408.95 1015.14 378.96C976.143 318.9 972.943 256.76 1006.57 193.62C1016.98 174.09 1030.78 156.39 1042.86 137.75C1070 95.83 1083.82 50.22 1080.98 0.0200195H999.253C1001.62 25.48 996.673 49.56 985.623 72.49C974.133 96.33 957.783 117.08 943.513 139.12C897.513 209.91 892.723 285.77 916.513 364.75C927.303 400.56 951.423 429.04 971.153 459.94C1008.46 518.37 1011.47 579.1 979.843 640.62C969.743 660.27 955.973 678.05 943.843 696.62C897.583 767.3 892.843 843.18 916.353 922.2C927.033 958.04 951.063 986.6 970.883 1017.45C972.383 1019.78 973.813 1022.12 975.203 1024.45H1066.73C1055.07 991 1032.14 963.7 1013.4 934.11C976.583 876.02 973.613 815.72 1004.91 754.65Z" fill="url(#paint2_linear)"/>
<path d="M1306.22 754.83C1316.02 735.54 1329.55 718.13 1341.53 699.97C1388.88 628.15 1394.53 551.09 1369.53 470.64C1358.71 435.88 1336.02 407.51 1315.83 377.98C1286.06 334.43 1280.08 286.87 1290.49 236.26C1297.29 203.18 1317.25 176.94 1336.13 150.43C1368.3 105.26 1384.13 55.3 1383.8 0.0200195H1302.07C1302.13 29.55 1297.07 57.89 1281.24 83.35C1269.99 101.44 1258.24 119.19 1246.44 136.97C1198.68 209.24 1193.22 286.68 1218.94 367.53C1229.94 402.21 1253.47 430.03 1272.77 460.14C1309.94 518.14 1312.58 578.14 1282.16 639.72C1272.48 659.3 1258.67 676.34 1246.67 694.5C1198.9 766.74 1193.18 844.12 1218.73 925.02C1229.41 958.84 1251.86 986.24 1270.97 1015.4C1272.97 1018.4 1274.81 1021.4 1276.6 1024.46H1368.14C1356.45 991.58 1334.37 964.46 1315.62 935.46C1277.93 877.15 1274.91 816.46 1306.22 754.83Z" fill="url(#paint3_linear)"/>
<path d="M1155.03 754.59C1165.12 734.93 1178.82 717.1 1191.03 698.59C1237.51 627.94 1242.28 552.02 1218.92 473.02C1208.19 436.73 1183.56 407.96 1163.67 376.62C1126.89 318.62 1124.02 258.51 1154.59 197C1164.51 177.02 1178.51 159.56 1190.79 141.02C1207.18 116.473 1219.13 89.2394 1226.1 60.56C1230.95 40.56 1229.76 20 1233.68 0H1151.96C1151.32 4 1150.22 8 1150.12 12C1149.47 38 1142.98 62.29 1129.32 84.37C1118.11 102.49 1106.08 120.09 1094.37 137.9C1047.7 208.9 1042.67 285.13 1066.61 364.68C1077.39 400.52 1101.5 428.98 1121.2 459.89C1158.43 518.32 1161.72 579.02 1129.92 640.56C1119.77 660.2 1106.06 678 1093.92 696.56C1047.85 766.77 1043.07 842.31 1065.92 920.92C1076.49 957.26 1100.83 986.24 1120.92 1017.44C1122.42 1019.77 1123.84 1022.1 1125.23 1024.44H1216.91C1205.35 991.44 1182.81 964.37 1164.17 935.21C1126.87 876.9 1123.4 816.19 1155.03 754.59Z" fill="url(#paint4_linear)"/>
<path d="M1456.62 754.65C1466.7 734.99 1480.42 717.18 1492.62 698.65C1539.24 627.57 1544.02 551.34 1520.04 471.86C1509.5 436.93 1486.31 408.95 1466.85 378.96C1427.85 318.9 1424.65 256.76 1458.28 193.62C1468.68 174.09 1482.48 156.39 1494.57 137.75C1521.7 95.83 1535.51 50.22 1532.68 0.0200195H1450.96C1453.33 25.48 1448.38 49.56 1437.33 72.49C1425.84 96.33 1409.49 117.08 1395.17 139.12C1349.17 209.91 1344.39 285.77 1368.17 364.75C1378.97 400.56 1403.09 429.04 1422.82 459.94C1460.13 518.37 1463.14 579.1 1431.51 640.62C1421.41 660.27 1407.63 678.05 1395.51 696.62C1349.24 767.3 1344.51 843.18 1368.01 922.2C1378.69 958.04 1402.73 986.6 1422.55 1017.45C1424.05 1019.78 1425.48 1022.12 1426.87 1024.45H1518.4C1506.74 991 1483.8 963.7 1465.07 934.11C1428.29 876.02 1425.32 815.72 1456.62 754.65Z" fill="url(#paint5_linear)"/>
<path d="M1601.08 0.0200195C1603.45 25.48 1598.5 49.56 1587.45 72.49C1575.96 96.33 1559.61 117.08 1545.29 139.12C1499.29 209.91 1494.51 285.77 1518.29 364.75C1529.09 400.56 1553.21 429.04 1572.94 459.94C1610.25 518.37 1613.26 579.1 1581.63 640.62C1571.53 660.27 1557.75 678.05 1545.63 696.62C1499.36 767.3 1494.63 843.18 1518.14 922.2C1528.81 958.04 1552.85 986.6 1572.67 1017.45C1574.17 1019.78 1575.6 1022.12 1576.99 1024.45H1668.51C1656.85 991 1633.91 963.7 1615.18 934.11C1578.41 876.04 1575.44 815.7 1606.74 754.63C1616.82 734.97 1630.54 717.16 1642.74 698.63C1653.12 682.91 1661.76 666.112 1668.52 648.53V466.76C1657.36 434.16 1635.52 407.45 1616.97 378.92C1577.97 318.86 1574.77 256.72 1608.4 193.58C1618.8 174.05 1632.6 156.35 1644.69 137.71C1654.22 123.122 1662.2 107.582 1668.51 91.34V0.0200195H1601.08Z" fill="url(#paint6_linear)"/>
<defs>
<linearGradient id="paint0_linear" x1="842.22" y1="0.0200195" x2="842.22" y2="1024.46" gradientUnits="userSpaceOnUse">
<stop stop-color="#96C0D6"/>
<stop offset="1" stop-color="#96C0D6" stop-opacity="0"/>
</linearGradient>
<linearGradient id="paint1_linear" x1="90.2197" y1="0" x2="90.2197" y2="1024.44" gradientUnits="userSpaceOnUse">
<stop stop-color="#E3F5FF"/>
<stop offset="1" stop-color="#96C0D6" stop-opacity="0"/>
</linearGradient>
<linearGradient id="paint2_linear" x1="992.48" y1="0.0200195" x2="992.48" y2="1024.45" gradientUnits="userSpaceOnUse">
<stop stop-color="#96C0D6"/>
<stop offset="1" stop-color="#96C0D6" stop-opacity="0"/>
</linearGradient>
<linearGradient id="paint3_linear" x1="1293.94" y1="0.0200195" x2="1293.94" y2="1024.46" gradientUnits="userSpaceOnUse">
<stop stop-color="#96C0D6"/>
<stop offset="1" stop-color="#96C0D6" stop-opacity="0"/>
</linearGradient>
<linearGradient id="paint4_linear" x1="1143.12" y1="0" x2="1143.12" y2="1024.44" gradientUnits="userSpaceOnUse">
<stop stop-color="#96C0D6"/>
<stop offset="1" stop-color="#96C0D6" stop-opacity="0"/>
</linearGradient>
<linearGradient id="paint5_linear" x1="1444.17" y1="0.0200195" x2="1444.17" y2="1024.45" gradientUnits="userSpaceOnUse">
<stop stop-color="#96C0D6"/>
<stop offset="1" stop-color="#96C0D6" stop-opacity="0"/>
</linearGradient>
<linearGradient id="paint6_linear" x1="1586.39" y1="0.0200195" x2="1586.39" y2="1024.45" gradientUnits="userSpaceOnUse">
<stop stop-color="#96C0D6"/>
<stop offset="1" stop-color="#96C0D6" stop-opacity="0"/>
</linearGradient>
</defs>
</svg>
