<svg width="34" height="28" viewBox="0 0 34 28" fill="none" xmlns="http://www.w3.org/2000/svg">
<path fill-rule="evenodd" clip-rule="evenodd" d="M24.694 24.998H26.6692V16.995H24.694V24.998ZM18.7613 24.998H20.7365V16.995H18.7613V24.998V24.998ZM12.8356 24.998H14.8108V16.995H12.8356V24.998ZM6.93078 24.998H8.90602V16.995H6.93078V24.998ZM1.8845 14L4.3902 25.4924C4.54725 26.2038 4.9391 26.8398 5.50115 27.2956C6.0632 27.7514 6.76192 27.9999 7.48218 28H26.1178C26.8372 27.9996 27.5349 27.7509 28.0958 27.295C28.6567 26.8391 29.0472 26.2032 29.2028 25.4924L31.7085 14H1.8845ZM33.6 8.02422V11.0192H0V8.02422H15.3552V0H18.3146V8.02422" fill="#003A5D"/>
</svg>
