<svg width="414" height="730" viewBox="0 0 414 730" fill="none" xmlns="http://www.w3.org/2000/svg">
<g clip-path="url(#clip0)">
<path d="M126.09 541.592C133.18 527.749 142.97 515.262 151.633 502.225C185.887 450.692 190 395.417 171.857 337.675C164.027 312.74 147.613 292.38 133.007 271.191C111.47 239.945 107.147 205.822 114.673 169.503C119.593 145.775 134.033 126.957 147.69 107.926C170.963 75.5094 182.413 39.6739 182.177 0H123.053C123.093 21.1859 119.443 41.5188 107.987 59.7919C99.8466 72.7719 91.3199 85.5072 82.8066 98.2624C48.2599 150.116 44.3099 205.683 62.9166 263.696C70.8966 288.578 87.8933 308.544 101.857 330.15C128.747 371.745 130.667 414.85 108.667 458.994C101.667 473.042 91.6666 485.275 82.9999 498.298C48.4733 550.135 44.3333 605.655 62.8199 663.711C70.5466 687.982 86.7866 707.637 100.613 728.565C100.947 729.044 101.24 729.521 101.55 730H168.923C160.117 708.639 145.473 690.475 132.893 671.183C105.623 629.357 103.44 585.808 126.09 541.592Z" fill="#96C0D6"/>
<path d="M16.7167 541.417C24.0167 527.309 33.9267 514.521 42.7567 501.207C76.3633 450.547 79.8333 396.071 62.9333 339.367C55.1733 313.328 37.3533 292.681 22.97 270.193C-3.64333 228.591 -5.71667 185.449 16.4 141.315C23.58 126.983 33.7333 114.476 42.5833 101.182C54.4633 83.3582 63.04 64.2817 68.1333 43.4529C71.64 29.0942 70.78 14.3487 73.6167 0H14.4933C14.0333 2.86975 13.24 5.72957 13.16 8.59601C12.7233 26.0062 8.59667 42.3916 0 57.3883V343.447C18.9033 380.281 19.0867 418.269 0 456.733V730H59.5367C50.76 708.593 35.8267 690.448 23.3167 671.035C-3.66667 629.179 -6.16667 585.617 16.7167 541.417Z" fill="#96C0D6"/>
<path d="M234.89 541.463C242.18 527.352 252.11 514.577 260.923 501.253C294.65 450.253 298.11 395.559 280.763 338.524C273.14 313.464 256.363 293.389 242.283 271.869C214.083 228.776 211.756 184.189 236.087 138.885C243.61 124.874 253.593 112.168 262.337 98.7913C281.977 68.7417 291.973 36.0371 289.917 0H230.793C232.51 18.2665 228.93 35.5445 220.933 52.0026C212.626 69.0987 200.796 83.9764 190.44 99.8063C157.18 150.602 153.7 205.028 170.93 261.706C178.74 287.395 196.19 307.833 210.46 330.001C237.46 371.923 239.626 415.502 216.75 459.645C209.44 473.746 199.476 486.498 190.673 499.832C157.206 550.542 153.753 604.987 170.786 661.688C178.506 687.39 195.883 707.882 210.217 730H277.647C268.783 708.262 253.583 689.962 240.98 670.244C214.396 628.577 212.246 585.276 234.89 541.463Z" fill="#96C0D6"/>
<path d="M389.687 263.696C394.99 280.227 404.274 294.589 414 308.703V91.6302L409.58 98.2624C375.03 150.116 371.08 205.683 389.687 263.696Z" fill="#96C0D6"/>
<path d="M389.57 663.712C394.876 680.385 404.2 694.879 414 709.102V492.095C412.56 494.152 411.142 496.219 409.746 498.298C375.223 550.145 371.083 605.655 389.57 663.712Z" fill="#96C0D6"/>
<path d="M343.486 541.417C350.79 527.309 360.697 514.521 369.53 501.207C403.133 450.547 406.603 396.071 389.703 339.367C381.943 313.328 364.127 292.681 349.743 270.193C323.13 228.591 321.053 185.449 343.17 141.315C350.353 126.983 360.503 114.476 369.353 101.182C381.233 83.3582 389.813 64.2817 394.903 43.4529C398.413 29.1008 397.57 14.3587 400.387 0H341.267C340.803 2.86975 340.013 5.72957 339.933 8.59601C339.46 27.2196 334.767 44.6827 324.883 60.5259C316.776 73.5224 308.07 86.1552 299.603 98.9335C265.846 149.901 262.206 204.588 279.52 261.663C287.333 287.385 304.763 307.803 319 329.984C345.933 371.903 348.313 415.459 325.31 459.616C317.976 473.707 308.053 486.482 299.236 499.809C265.903 550.188 262.453 604.392 278.993 660.792C286.636 686.851 304.223 707.627 318.76 730H386.293C377.52 708.593 362.587 690.448 350.077 671.035C323.116 629.179 320.606 585.617 343.486 541.417Z" fill="#96C0D6"/>
</g>
<defs>
<clipPath id="clip0">
<rect width="414" height="730" fill="white"/>
</clipPath>
</defs>
</svg>
