<svg 
preserveAspectRatio="xMinYMin meet"
width="900" height="900"  fill="none" xmlns="http://www.w3.org/2000/svg">
<path d="M316.753 0H271.008C29.5301 300 264.143 600 22.6583 900H68.3962C309.881 600 75.2746 300 316.753 0Z" fill="#96C0D6"/>
<path d="M393.338 0H347.561C106.076 300 340.689 600 99.2042 900H144.949C386.427 600 151.814 300 393.338 0Z" fill="#96C0D6"/>
<path d="M469.858 0H424.113C182.635 300 417.242 600 175.724 900H221.469C462.979 600 228.367 300 469.858 0Z" fill="#96C0D6"/>
<path d="M546.404 0H500.659C259.181 300 493.788 600 252.303 900H298.047C539.525 600 304.913 300 546.404 0Z" fill="#96C0D6"/>
<path d="M622.95 0H577.212C335.734 300 570.34 600 328.823 900H374.561C616.078 600 381.479 300 622.95 0Z" fill="#96C0D6"/>
<path d="M699.503 0H653.765C412.28 300 646.893 600 405.408 900H451.146C692.631 600 458.018 300 699.503 0Z" fill="#96C0D6"/>
<path d="M776.049 0H730.311C488.833 300 723.426 600 481.955 900H527.693C769.177 600 534.564 300 776.049 0Z" fill="#96C0D6"/>
<path d="M852.602 0H806.864C565.379 300 799.992 600 558.474 900H604.212C845.723 600 611.117 300 852.602 0Z" fill="#96C0D6"/>
<path d="M883.996 0H883.41C641.925 300 876.538 600 635.053 900H680.791C911.668 613.184 707.356 326.355 900 39.5391V0H883.996Z" fill="#96C0D6"/>
<path d="M711.606 900H757.344C939.736 673.406 850.526 446.813 900 220.219V91.6406C761.323 361.09 928.502 630.551 711.606 900Z" fill="#96C0D6"/>
<path d="M788.152 900H833.897C861.793 865.336 883.311 830.684 900 796.02V647.566C886.164 731.707 855.889 815.859 788.152 900Z" fill="#96C0D6"/>
<path d="M240.2 0H194.462C-25.4978 273.27 149.561 546.527 0 819.797V889.641C227.965 593.086 1.50879 296.543 240.2 0Z" fill="#96C0D6"/>
<path d="M163.654 0H117.936C37.7855 99.5391 10.0739 199.078 0 298.617V752.133C92.53 501.41 -38.1545 250.699 163.654 0Z" fill="#96C0D6"/>
<path d="M87.1076 0H41.3631C26.8581 17.8733 13.0397 37.448 0 58.5938L0 154.547C18.2108 103.02 45.6391 51.5625 87.1076 0Z" fill="#96C0D6"/>
</svg>
