<svg width="1441" height="1025" viewBox="0 0 1441 1025" fill="none" xmlns="http://www.w3.org/2000/svg">
<path d="M174.3 754.83C184.1 735.54 197.63 718.13 209.61 699.97C256.96 628.15 262.61 551.09 237.56 470.64C226.74 435.88 204.05 407.51 183.86 377.98C154.09 334.43 148.11 286.87 158.52 236.26C165.32 203.18 185.28 176.94 204.16 150.43C236.33 105.26 252.16 55.3 251.83 0.0200195H170.1C170.16 29.55 165.1 57.89 149.27 83.35C138 101.44 126.21 119.19 114.47 137.02C66.7097 209.24 61.2497 286.68 86.9997 367.53C97.9997 402.21 121.53 430.03 140.83 460.14C178 518.14 180.64 578.14 150.22 639.72C140.54 659.3 126.72 676.34 114.73 694.5C66.9997 766.74 61.2497 844.12 86.8097 925.02C97.4897 958.84 119.93 986.24 139.05 1015.4C141.05 1018.4 142.89 1021.4 144.68 1024.46H236.21C224.52 991.58 202.45 964.46 183.7 935.46C146 877.15 143 816.46 174.3 754.83Z" fill="#96C0D6"/>
<path d="M23.11 754.59C33.2 734.93 46.9 717.1 59.11 698.59C105.56 627.94 110.35 552.02 87 473.02C76.28 436.73 51.65 407.96 31.76 376.62C-5 318.61 -7.9 258.48 22.67 197.02C32.6 177.02 46.62 159.56 58.86 141.02C75.244 116.477 87.1983 89.2515 94.18 60.58C99 40.58 97.84 20.02 101.76 0.0200195H20C19.4 4.02002 18.3 8.02002 18.2 12.02C17.59 36.26 11.88 59.1 0 80.02V478.68C26.13 530.02 26.39 582.96 0 636.57V1024.47H85C73.43 991.47 50.89 964.4 32.25 935.24C-5 876.9 -8.52 816.19 23.11 754.59Z" fill="#96C0D6"/>
<path d="M324.7 754.65C334.77 734.99 348.5 717.18 360.7 698.65C407.33 627.57 412.1 551.34 388.13 471.86C377.59 436.93 354.4 408.95 334.93 378.96C295.93 318.9 292.74 256.76 326.37 193.62C336.77 174.09 350.57 156.39 362.65 137.75C389.78 95.83 403.6 50.22 400.76 0.0200195H319C321.38 25.48 316.43 49.56 305.37 72.49C293.89 96.33 277.54 117.08 263.22 139.12C217.22 209.91 212.43 285.77 236.22 364.75C247.02 400.56 271.14 429.04 290.87 459.94C328.18 518.37 331.18 579.1 299.56 640.62C289.46 660.27 275.68 678.05 263.51 696.62C217.25 767.3 212.51 843.18 236.02 922.2C246.7 958.04 270.74 986.6 290.56 1017.45C292.06 1019.78 293.48 1022.12 294.87 1024.45H386.41C374.74 991 351.81 963.7 333.08 934.11C296.37 876.02 293.4 815.72 324.7 754.65Z" fill="#96C0D6"/>
<path d="M626 754.83C635.8 735.54 649.34 718.13 661.31 699.97C708.66 628.15 714.31 551.09 689.31 470.64C678.48 435.88 655.8 407.51 635.61 377.98C605.83 334.43 599.86 286.87 610.26 236.26C617.06 203.18 637.02 176.94 655.9 150.43C688 105.26 703.86 55.3 703.53 0.0200195H621.81C621.86 29.55 616.81 57.89 600.98 83.35C589.72 101.44 577.92 119.19 566.17 136.97C518.41 209.24 513 286.68 538.68 367.53C549.68 402.21 573.2 430.03 592.51 460.14C629.67 518.14 632.32 578.14 601.9 639.72C592.22 659.3 578.4 676.34 566.41 694.5C518.68 766.74 513 844.12 538.51 925.02C549.19 958.84 571.64 986.24 590.76 1015.4C592.76 1018.4 594.59 1021.4 596.38 1024.46H687.92C676.23 991.58 654.16 964.46 635.41 935.46C597.71 877.15 594.69 816.46 626 754.83Z" fill="#96C0D6"/>
<path d="M474.81 754.59C484.91 734.93 498.6 717.1 510.81 698.59C557.26 627.94 562.06 552.02 538.7 473.02C527.97 436.73 503.34 407.96 483.46 376.62C446.67 318.62 443.8 258.51 474.37 197C484.3 177 498.32 159.59 510.57 141.07C526.956 116.521 538.91 89.2885 545.89 60.6101C550.74 40.6101 549.55 20.05 553.47 0.0500488H471.74C471.1 4.05005 470.01 8.05005 469.91 12.05C469.25 38.05 462.77 62.3401 449.11 84.4201C437.9 102.54 425.86 120.14 414.16 137.95C367.49 208.95 362.46 285.18 386.39 364.73C397.18 400.57 421.29 429.03 440.98 459.94C478.21 518.34 481.5 579.02 449.7 640.58C439.55 660.22 425.85 678.02 413.7 696.58C367.63 766.79 362.86 842.33 385.7 920.94C396.27 957.28 420.61 986.26 440.7 1017.46C442.19 1019.79 443.62 1022.12 445.01 1024.46H536.68C525.12 991.46 502.58 964.39 483.94 935.23C446.66 876.9 443.18 816.19 474.81 754.59Z" fill="#96C0D6"/>
<path d="M776.4 754.65C786.48 734.99 800.21 717.18 812.4 698.65C859.02 627.57 863.8 551.34 839.82 471.86C829.28 436.93 806.09 408.95 786.63 378.96C747.63 318.9 744.43 256.76 778.06 193.62C788.47 174.09 802.27 156.39 814.35 137.75C841.49 95.83 855.31 50.22 852.47 0.0200195H770.74C773.11 25.48 768.16 49.56 757.11 72.49C745.62 96.33 729.27 117.08 715 139.12C669 209.91 664.21 285.77 688 364.75C698.79 400.56 722.91 429.04 742.64 459.94C779.95 518.37 782.96 579.1 751.33 640.62C741.23 660.27 727.46 678.05 715.33 696.62C669.07 767.3 664.33 843.18 687.84 922.2C698.52 958.04 722.55 986.6 742.37 1017.45C743.87 1019.78 745.3 1022.12 746.69 1024.45H838.22C826.56 991 803.63 963.7 784.89 934.11C748.07 876.02 745.1 815.72 776.4 754.65Z" fill="#96C0D6"/>
<path d="M1077.71 754.83C1087.51 735.54 1101.04 718.13 1113.02 699.97C1160.37 628.15 1166.02 551.09 1141.02 470.64C1130.2 435.88 1107.51 407.51 1087.32 377.98C1057.55 334.43 1051.57 286.87 1061.98 236.26C1068.78 203.18 1088.74 176.94 1107.62 150.43C1139.79 105.26 1155.62 55.3 1155.29 0.0200195H1073.56C1073.62 29.55 1068.56 57.89 1052.73 83.35C1041.48 101.44 1029.73 119.19 1017.93 136.97C970.17 209.24 964.71 286.68 990.43 367.53C1001.43 402.21 1024.96 430.03 1044.26 460.14C1081.43 518.14 1084.07 578.14 1053.65 639.72C1043.97 659.3 1030.16 676.34 1018.16 694.5C970.39 766.74 964.67 844.12 990.22 925.02C1000.9 958.84 1023.35 986.24 1042.46 1015.4C1044.46 1018.4 1046.3 1021.4 1048.09 1024.46H1139.63C1127.94 991.58 1105.86 964.46 1087.11 935.46C1049.42 877.15 1046.4 816.46 1077.71 754.83Z" fill="#96C0D6"/>
<path d="M926.52 754.59C936.61 734.93 950.31 717.1 962.52 698.59C1009 627.94 1013.77 552.02 990.409 473.02C979.679 436.73 955.049 407.96 935.159 376.62C898.379 318.62 895.51 258.51 926.08 197C936 177.02 950 159.56 962.28 141.02C978.667 116.473 990.618 89.2394 997.59 60.56C1002.44 40.56 1001.25 20 1005.17 0H923.45C922.81 4 921.71 8 921.61 12C920.96 38 914.47 62.29 900.81 84.37C889.6 102.49 877.57 120.09 865.86 137.9C819.19 208.9 814.159 285.13 838.099 364.68C848.879 400.52 872.99 428.98 892.69 459.89C929.92 518.32 933.209 579.02 901.409 640.56C891.259 660.2 877.549 678 865.409 696.56C819.339 766.77 814.559 842.31 837.409 920.92C847.979 957.26 872.319 986.24 892.409 1017.44C893.909 1019.77 895.329 1022.1 896.719 1024.44H988.4C976.84 991.44 954.299 964.37 935.659 935.21C898.359 876.9 894.89 816.19 926.52 754.59Z" fill="#96C0D6"/>
<path d="M1228.11 754.65C1238.19 734.99 1251.91 717.18 1264.11 698.65C1310.73 627.57 1315.51 551.34 1291.53 471.86C1280.99 436.93 1257.8 408.95 1238.34 378.96C1199.34 318.9 1196.14 256.76 1229.77 193.62C1240.17 174.09 1253.97 156.39 1266.06 137.75C1293.19 95.83 1307 50.22 1304.17 0.0200195H1222.45C1224.82 25.48 1219.87 49.56 1208.82 72.49C1197.33 96.33 1180.98 117.08 1166.66 139.12C1120.66 209.91 1115.88 285.77 1139.66 364.75C1150.46 400.56 1174.58 429.04 1194.31 459.94C1231.62 518.37 1234.63 579.1 1203 640.62C1192.9 660.27 1179.12 678.05 1167 696.62C1120.73 767.3 1116 843.18 1139.5 922.2C1150.18 958.04 1174.22 986.6 1194.04 1017.45C1195.54 1019.78 1196.97 1022.12 1198.36 1024.45H1289.89C1278.23 991 1255.29 963.7 1236.56 934.11C1199.78 876.02 1196.81 815.72 1228.11 754.65Z" fill="#96C0D6"/>
<path d="M1372.57 0.0200195C1374.94 25.48 1369.99 49.56 1358.94 72.49C1347.45 96.33 1331.1 117.08 1316.78 139.12C1270.78 209.91 1266 285.77 1289.78 364.75C1300.58 400.56 1324.7 429.04 1344.43 459.94C1381.74 518.37 1384.75 579.1 1353.12 640.62C1343.02 660.27 1329.24 678.05 1317.12 696.62C1270.85 767.3 1266.12 843.18 1289.63 922.2C1300.3 958.04 1324.34 986.6 1344.16 1017.45C1345.66 1019.78 1347.09 1022.12 1348.48 1024.45H1440C1428.34 991 1405.4 963.7 1386.67 934.11C1349.9 876.04 1346.93 815.7 1378.23 754.63C1388.31 734.97 1402.03 717.16 1414.23 698.63C1424.61 682.91 1433.25 666.112 1440.01 648.53V466.76C1428.85 434.16 1407.01 407.45 1388.46 378.92C1349.46 318.86 1346.26 256.72 1379.89 193.58C1390.29 174.05 1404.09 156.35 1416.18 137.71C1425.71 123.122 1433.69 107.582 1440 91.34V0.0200195H1372.57Z" fill="#96C0D6"/>
<path d="M1439.93 364.75C1439.93 364.83 1439.93 364.89 1440 364.97V193.02C1420.31 247.93 1422.05 305.46 1439.93 364.75Z" fill="#96C0D6"/>
</svg>
